%TF.GenerationSoftware,KiCad,Pcbnew,10.0.3*%
%TF.CreationDate,2026-06-16T10:33:58+08:00*%
%TF.ProjectId,PCB,5043422e-6b69-4636-9164-5f7063625858,rev?*%
%TF.SameCoordinates,Original*%
%TF.FileFunction,Legend,Top*%
%TF.FilePolarity,Positive*%
%FSLAX46Y46*%
G04 Gerber Fmt 4.6, Leading zero omitted, Abs format (unit mm)*
G04 Created by KiCad (PCBNEW 10.0.3) date 2026-06-16 10:33:58*
%MOMM*%
%LPD*%
G01*
G04 APERTURE LIST*
%ADD10C,0.150000*%
%ADD11C,0.120000*%
G04 APERTURE END LIST*
D10*
X94964819Y-139583333D02*
X95679104Y-139583333D01*
X95679104Y-139583333D02*
X95821961Y-139630952D01*
X95821961Y-139630952D02*
X95917200Y-139726190D01*
X95917200Y-139726190D02*
X95964819Y-139869047D01*
X95964819Y-139869047D02*
X95964819Y-139964285D01*
X94964819Y-139202380D02*
X94964819Y-138535714D01*
X94964819Y-138535714D02*
X95964819Y-138964285D01*
X137944819Y-84009523D02*
X138659104Y-84009523D01*
X138659104Y-84009523D02*
X138801961Y-84057142D01*
X138801961Y-84057142D02*
X138897200Y-84152380D01*
X138897200Y-84152380D02*
X138944819Y-84295237D01*
X138944819Y-84295237D02*
X138944819Y-84390475D01*
X138944819Y-83009523D02*
X138944819Y-83580951D01*
X138944819Y-83295237D02*
X137944819Y-83295237D01*
X137944819Y-83295237D02*
X138087676Y-83390475D01*
X138087676Y-83390475D02*
X138182914Y-83485713D01*
X138182914Y-83485713D02*
X138230533Y-83580951D01*
X137944819Y-82390475D02*
X137944819Y-82295237D01*
X137944819Y-82295237D02*
X137992438Y-82199999D01*
X137992438Y-82199999D02*
X138040057Y-82152380D01*
X138040057Y-82152380D02*
X138135295Y-82104761D01*
X138135295Y-82104761D02*
X138325771Y-82057142D01*
X138325771Y-82057142D02*
X138563866Y-82057142D01*
X138563866Y-82057142D02*
X138754342Y-82104761D01*
X138754342Y-82104761D02*
X138849580Y-82152380D01*
X138849580Y-82152380D02*
X138897200Y-82199999D01*
X138897200Y-82199999D02*
X138944819Y-82295237D01*
X138944819Y-82295237D02*
X138944819Y-82390475D01*
X138944819Y-82390475D02*
X138897200Y-82485713D01*
X138897200Y-82485713D02*
X138849580Y-82533332D01*
X138849580Y-82533332D02*
X138754342Y-82580951D01*
X138754342Y-82580951D02*
X138563866Y-82628570D01*
X138563866Y-82628570D02*
X138325771Y-82628570D01*
X138325771Y-82628570D02*
X138135295Y-82580951D01*
X138135295Y-82580951D02*
X138040057Y-82533332D01*
X138040057Y-82533332D02*
X137992438Y-82485713D01*
X137992438Y-82485713D02*
X137944819Y-82390475D01*
X137944819Y-69583333D02*
X138659104Y-69583333D01*
X138659104Y-69583333D02*
X138801961Y-69630952D01*
X138801961Y-69630952D02*
X138897200Y-69726190D01*
X138897200Y-69726190D02*
X138944819Y-69869047D01*
X138944819Y-69869047D02*
X138944819Y-69964285D01*
X138040057Y-69154761D02*
X137992438Y-69107142D01*
X137992438Y-69107142D02*
X137944819Y-69011904D01*
X137944819Y-69011904D02*
X137944819Y-68773809D01*
X137944819Y-68773809D02*
X137992438Y-68678571D01*
X137992438Y-68678571D02*
X138040057Y-68630952D01*
X138040057Y-68630952D02*
X138135295Y-68583333D01*
X138135295Y-68583333D02*
X138230533Y-68583333D01*
X138230533Y-68583333D02*
X138373390Y-68630952D01*
X138373390Y-68630952D02*
X138944819Y-69202380D01*
X138944819Y-69202380D02*
X138944819Y-68583333D01*
X137944819Y-126059523D02*
X138659104Y-126059523D01*
X138659104Y-126059523D02*
X138801961Y-126107142D01*
X138801961Y-126107142D02*
X138897200Y-126202380D01*
X138897200Y-126202380D02*
X138944819Y-126345237D01*
X138944819Y-126345237D02*
X138944819Y-126440475D01*
X138944819Y-125059523D02*
X138944819Y-125630951D01*
X138944819Y-125345237D02*
X137944819Y-125345237D01*
X137944819Y-125345237D02*
X138087676Y-125440475D01*
X138087676Y-125440475D02*
X138182914Y-125535713D01*
X138182914Y-125535713D02*
X138230533Y-125630951D01*
X138040057Y-124678570D02*
X137992438Y-124630951D01*
X137992438Y-124630951D02*
X137944819Y-124535713D01*
X137944819Y-124535713D02*
X137944819Y-124297618D01*
X137944819Y-124297618D02*
X137992438Y-124202380D01*
X137992438Y-124202380D02*
X138040057Y-124154761D01*
X138040057Y-124154761D02*
X138135295Y-124107142D01*
X138135295Y-124107142D02*
X138230533Y-124107142D01*
X138230533Y-124107142D02*
X138373390Y-124154761D01*
X138373390Y-124154761D02*
X138944819Y-124726189D01*
X138944819Y-124726189D02*
X138944819Y-124107142D01*
X94964819Y-125583333D02*
X95679104Y-125583333D01*
X95679104Y-125583333D02*
X95821961Y-125630952D01*
X95821961Y-125630952D02*
X95917200Y-125726190D01*
X95917200Y-125726190D02*
X95964819Y-125869047D01*
X95964819Y-125869047D02*
X95964819Y-125964285D01*
X94964819Y-124678571D02*
X94964819Y-124869047D01*
X94964819Y-124869047D02*
X95012438Y-124964285D01*
X95012438Y-124964285D02*
X95060057Y-125011904D01*
X95060057Y-125011904D02*
X95202914Y-125107142D01*
X95202914Y-125107142D02*
X95393390Y-125154761D01*
X95393390Y-125154761D02*
X95774342Y-125154761D01*
X95774342Y-125154761D02*
X95869580Y-125107142D01*
X95869580Y-125107142D02*
X95917200Y-125059523D01*
X95917200Y-125059523D02*
X95964819Y-124964285D01*
X95964819Y-124964285D02*
X95964819Y-124773809D01*
X95964819Y-124773809D02*
X95917200Y-124678571D01*
X95917200Y-124678571D02*
X95869580Y-124630952D01*
X95869580Y-124630952D02*
X95774342Y-124583333D01*
X95774342Y-124583333D02*
X95536247Y-124583333D01*
X95536247Y-124583333D02*
X95441009Y-124630952D01*
X95441009Y-124630952D02*
X95393390Y-124678571D01*
X95393390Y-124678571D02*
X95345771Y-124773809D01*
X95345771Y-124773809D02*
X95345771Y-124964285D01*
X95345771Y-124964285D02*
X95393390Y-125059523D01*
X95393390Y-125059523D02*
X95441009Y-125107142D01*
X95441009Y-125107142D02*
X95536247Y-125154761D01*
X129283792Y-77684819D02*
X129283792Y-78399104D01*
X129283792Y-78399104D02*
X129236173Y-78541961D01*
X129236173Y-78541961D02*
X129140935Y-78637200D01*
X129140935Y-78637200D02*
X128998078Y-78684819D01*
X128998078Y-78684819D02*
X128902840Y-78684819D01*
X130283792Y-78684819D02*
X129712364Y-78684819D01*
X129998078Y-78684819D02*
X129998078Y-77684819D01*
X129998078Y-77684819D02*
X129902840Y-77827676D01*
X129902840Y-77827676D02*
X129807602Y-77922914D01*
X129807602Y-77922914D02*
X129712364Y-77970533D01*
X131140935Y-78018152D02*
X131140935Y-78684819D01*
X130902840Y-77637200D02*
X130664745Y-78351485D01*
X130664745Y-78351485D02*
X131283792Y-78351485D01*
X94964819Y-83330259D02*
X95679104Y-83330259D01*
X95679104Y-83330259D02*
X95821961Y-83377878D01*
X95821961Y-83377878D02*
X95917200Y-83473116D01*
X95917200Y-83473116D02*
X95964819Y-83615973D01*
X95964819Y-83615973D02*
X95964819Y-83711211D01*
X94964819Y-82949306D02*
X94964819Y-82330259D01*
X94964819Y-82330259D02*
X95345771Y-82663592D01*
X95345771Y-82663592D02*
X95345771Y-82520735D01*
X95345771Y-82520735D02*
X95393390Y-82425497D01*
X95393390Y-82425497D02*
X95441009Y-82377878D01*
X95441009Y-82377878D02*
X95536247Y-82330259D01*
X95536247Y-82330259D02*
X95774342Y-82330259D01*
X95774342Y-82330259D02*
X95869580Y-82377878D01*
X95869580Y-82377878D02*
X95917200Y-82425497D01*
X95917200Y-82425497D02*
X95964819Y-82520735D01*
X95964819Y-82520735D02*
X95964819Y-82806449D01*
X95964819Y-82806449D02*
X95917200Y-82901687D01*
X95917200Y-82901687D02*
X95869580Y-82949306D01*
X94964819Y-69280259D02*
X95679104Y-69280259D01*
X95679104Y-69280259D02*
X95821961Y-69327878D01*
X95821961Y-69327878D02*
X95917200Y-69423116D01*
X95917200Y-69423116D02*
X95964819Y-69565973D01*
X95964819Y-69565973D02*
X95964819Y-69661211D01*
X95964819Y-68280259D02*
X95964819Y-68851687D01*
X95964819Y-68565973D02*
X94964819Y-68565973D01*
X94964819Y-68565973D02*
X95107676Y-68661211D01*
X95107676Y-68661211D02*
X95202914Y-68756449D01*
X95202914Y-68756449D02*
X95250533Y-68851687D01*
X137944819Y-140059523D02*
X138659104Y-140059523D01*
X138659104Y-140059523D02*
X138801961Y-140107142D01*
X138801961Y-140107142D02*
X138897200Y-140202380D01*
X138897200Y-140202380D02*
X138944819Y-140345237D01*
X138944819Y-140345237D02*
X138944819Y-140440475D01*
X138944819Y-139059523D02*
X138944819Y-139630951D01*
X138944819Y-139345237D02*
X137944819Y-139345237D01*
X137944819Y-139345237D02*
X138087676Y-139440475D01*
X138087676Y-139440475D02*
X138182914Y-139535713D01*
X138182914Y-139535713D02*
X138230533Y-139630951D01*
X138944819Y-138107142D02*
X138944819Y-138678570D01*
X138944819Y-138392856D02*
X137944819Y-138392856D01*
X137944819Y-138392856D02*
X138087676Y-138488094D01*
X138087676Y-138488094D02*
X138182914Y-138583332D01*
X138182914Y-138583332D02*
X138230533Y-138678570D01*
X94964819Y-111583333D02*
X95679104Y-111583333D01*
X95679104Y-111583333D02*
X95821961Y-111630952D01*
X95821961Y-111630952D02*
X95917200Y-111726190D01*
X95917200Y-111726190D02*
X95964819Y-111869047D01*
X95964819Y-111869047D02*
X95964819Y-111964285D01*
X94964819Y-110630952D02*
X94964819Y-111107142D01*
X94964819Y-111107142D02*
X95441009Y-111154761D01*
X95441009Y-111154761D02*
X95393390Y-111107142D01*
X95393390Y-111107142D02*
X95345771Y-111011904D01*
X95345771Y-111011904D02*
X95345771Y-110773809D01*
X95345771Y-110773809D02*
X95393390Y-110678571D01*
X95393390Y-110678571D02*
X95441009Y-110630952D01*
X95441009Y-110630952D02*
X95536247Y-110583333D01*
X95536247Y-110583333D02*
X95774342Y-110583333D01*
X95774342Y-110583333D02*
X95869580Y-110630952D01*
X95869580Y-110630952D02*
X95917200Y-110678571D01*
X95917200Y-110678571D02*
X95964819Y-110773809D01*
X95964819Y-110773809D02*
X95964819Y-111011904D01*
X95964819Y-111011904D02*
X95917200Y-111107142D01*
X95917200Y-111107142D02*
X95869580Y-111154761D01*
X103883792Y-77954819D02*
X103883792Y-78669104D01*
X103883792Y-78669104D02*
X103836173Y-78811961D01*
X103836173Y-78811961D02*
X103740935Y-78907200D01*
X103740935Y-78907200D02*
X103598078Y-78954819D01*
X103598078Y-78954819D02*
X103502840Y-78954819D01*
X104883792Y-78954819D02*
X104312364Y-78954819D01*
X104598078Y-78954819D02*
X104598078Y-77954819D01*
X104598078Y-77954819D02*
X104502840Y-78097676D01*
X104502840Y-78097676D02*
X104407602Y-78192914D01*
X104407602Y-78192914D02*
X104312364Y-78240533D01*
X105217126Y-77954819D02*
X105836173Y-77954819D01*
X105836173Y-77954819D02*
X105502840Y-78335771D01*
X105502840Y-78335771D02*
X105645697Y-78335771D01*
X105645697Y-78335771D02*
X105740935Y-78383390D01*
X105740935Y-78383390D02*
X105788554Y-78431009D01*
X105788554Y-78431009D02*
X105836173Y-78526247D01*
X105836173Y-78526247D02*
X105836173Y-78764342D01*
X105836173Y-78764342D02*
X105788554Y-78859580D01*
X105788554Y-78859580D02*
X105740935Y-78907200D01*
X105740935Y-78907200D02*
X105645697Y-78954819D01*
X105645697Y-78954819D02*
X105359983Y-78954819D01*
X105359983Y-78954819D02*
X105264745Y-78907200D01*
X105264745Y-78907200D02*
X105217126Y-78859580D01*
X94964819Y-97583333D02*
X95679104Y-97583333D01*
X95679104Y-97583333D02*
X95821961Y-97630952D01*
X95821961Y-97630952D02*
X95917200Y-97726190D01*
X95917200Y-97726190D02*
X95964819Y-97869047D01*
X95964819Y-97869047D02*
X95964819Y-97964285D01*
X95298152Y-96678571D02*
X95964819Y-96678571D01*
X94917200Y-96916666D02*
X95631485Y-97154761D01*
X95631485Y-97154761D02*
X95631485Y-96535714D01*
X137944819Y-111633333D02*
X138659104Y-111633333D01*
X138659104Y-111633333D02*
X138801961Y-111680952D01*
X138801961Y-111680952D02*
X138897200Y-111776190D01*
X138897200Y-111776190D02*
X138944819Y-111919047D01*
X138944819Y-111919047D02*
X138944819Y-112014285D01*
X138373390Y-111014285D02*
X138325771Y-111109523D01*
X138325771Y-111109523D02*
X138278152Y-111157142D01*
X138278152Y-111157142D02*
X138182914Y-111204761D01*
X138182914Y-111204761D02*
X138135295Y-111204761D01*
X138135295Y-111204761D02*
X138040057Y-111157142D01*
X138040057Y-111157142D02*
X137992438Y-111109523D01*
X137992438Y-111109523D02*
X137944819Y-111014285D01*
X137944819Y-111014285D02*
X137944819Y-110823809D01*
X137944819Y-110823809D02*
X137992438Y-110728571D01*
X137992438Y-110728571D02*
X138040057Y-110680952D01*
X138040057Y-110680952D02*
X138135295Y-110633333D01*
X138135295Y-110633333D02*
X138182914Y-110633333D01*
X138182914Y-110633333D02*
X138278152Y-110680952D01*
X138278152Y-110680952D02*
X138325771Y-110728571D01*
X138325771Y-110728571D02*
X138373390Y-110823809D01*
X138373390Y-110823809D02*
X138373390Y-111014285D01*
X138373390Y-111014285D02*
X138421009Y-111109523D01*
X138421009Y-111109523D02*
X138468628Y-111157142D01*
X138468628Y-111157142D02*
X138563866Y-111204761D01*
X138563866Y-111204761D02*
X138754342Y-111204761D01*
X138754342Y-111204761D02*
X138849580Y-111157142D01*
X138849580Y-111157142D02*
X138897200Y-111109523D01*
X138897200Y-111109523D02*
X138944819Y-111014285D01*
X138944819Y-111014285D02*
X138944819Y-110823809D01*
X138944819Y-110823809D02*
X138897200Y-110728571D01*
X138897200Y-110728571D02*
X138849580Y-110680952D01*
X138849580Y-110680952D02*
X138754342Y-110633333D01*
X138754342Y-110633333D02*
X138563866Y-110633333D01*
X138563866Y-110633333D02*
X138468628Y-110680952D01*
X138468628Y-110680952D02*
X138421009Y-110728571D01*
X138421009Y-110728571D02*
X138373390Y-110823809D01*
X137944819Y-97583333D02*
X138659104Y-97583333D01*
X138659104Y-97583333D02*
X138801961Y-97630952D01*
X138801961Y-97630952D02*
X138897200Y-97726190D01*
X138897200Y-97726190D02*
X138944819Y-97869047D01*
X138944819Y-97869047D02*
X138944819Y-97964285D01*
X138944819Y-97059523D02*
X138944819Y-96869047D01*
X138944819Y-96869047D02*
X138897200Y-96773809D01*
X138897200Y-96773809D02*
X138849580Y-96726190D01*
X138849580Y-96726190D02*
X138706723Y-96630952D01*
X138706723Y-96630952D02*
X138516247Y-96583333D01*
X138516247Y-96583333D02*
X138135295Y-96583333D01*
X138135295Y-96583333D02*
X138040057Y-96630952D01*
X138040057Y-96630952D02*
X137992438Y-96678571D01*
X137992438Y-96678571D02*
X137944819Y-96773809D01*
X137944819Y-96773809D02*
X137944819Y-96964285D01*
X137944819Y-96964285D02*
X137992438Y-97059523D01*
X137992438Y-97059523D02*
X138040057Y-97107142D01*
X138040057Y-97107142D02*
X138135295Y-97154761D01*
X138135295Y-97154761D02*
X138373390Y-97154761D01*
X138373390Y-97154761D02*
X138468628Y-97107142D01*
X138468628Y-97107142D02*
X138516247Y-97059523D01*
X138516247Y-97059523D02*
X138563866Y-96964285D01*
X138563866Y-96964285D02*
X138563866Y-96773809D01*
X138563866Y-96773809D02*
X138516247Y-96678571D01*
X138516247Y-96678571D02*
X138468628Y-96630952D01*
X138468628Y-96630952D02*
X138373390Y-96583333D01*
%TO.C,J7*%
D11*
X82690000Y-132940000D02*
X94410000Y-132940000D01*
X82690000Y-139250000D02*
X82690000Y-132940000D01*
X82690000Y-139250000D02*
X82690000Y-145560000D01*
X82690000Y-145560000D02*
X94410000Y-145560000D01*
X89910000Y-134360000D02*
X89910000Y-139250000D01*
X89910000Y-144140000D02*
X89910000Y-139250000D01*
X93500000Y-135500000D02*
X94100000Y-135200000D01*
X94100000Y-135200000D02*
X94100000Y-135800000D01*
X94100000Y-135800000D02*
X93500000Y-135500000D01*
X94410000Y-132940000D02*
X94410000Y-134360000D01*
X94410000Y-134360000D02*
X89910000Y-134360000D01*
X94410000Y-144140000D02*
X89910000Y-144140000D01*
X94410000Y-145560000D02*
X94410000Y-144140000D01*
X83300000Y-135250000D02*
X88800000Y-135250000D01*
X88800000Y-135750000D01*
X83300000Y-135750000D01*
X83300000Y-135250000D01*
X83300000Y-137750000D02*
X88800000Y-137750000D01*
X88800000Y-138250000D01*
X83300000Y-138250000D01*
X83300000Y-137750000D01*
X83300000Y-140250000D02*
X88800000Y-140250000D01*
X88800000Y-140750000D01*
X83300000Y-140750000D01*
X83300000Y-140250000D01*
X83300000Y-142750000D02*
X88800000Y-142750000D01*
X88800000Y-143250000D01*
X83300000Y-143250000D01*
X83300000Y-142750000D01*
%TO.C,J10*%
X139590000Y-76890000D02*
X139590000Y-78310000D01*
X139590000Y-78310000D02*
X144090000Y-78310000D01*
X139590000Y-88090000D02*
X144090000Y-88090000D01*
X139590000Y-89510000D02*
X139590000Y-88090000D01*
X139900000Y-86650000D02*
X140500000Y-86950000D01*
X139900000Y-87250000D02*
X139900000Y-86650000D01*
X140500000Y-86950000D02*
X139900000Y-87250000D01*
X144090000Y-78310000D02*
X144090000Y-83200000D01*
X144090000Y-88090000D02*
X144090000Y-83200000D01*
X151310000Y-76890000D02*
X139590000Y-76890000D01*
X151310000Y-83200000D02*
X151310000Y-76890000D01*
X151310000Y-83200000D02*
X151310000Y-89510000D01*
X151310000Y-89510000D02*
X139590000Y-89510000D01*
X145200000Y-79200000D02*
X150700000Y-79200000D01*
X150700000Y-79700000D01*
X145200000Y-79700000D01*
X145200000Y-79200000D01*
X145200000Y-81700000D02*
X150700000Y-81700000D01*
X150700000Y-82200000D01*
X145200000Y-82200000D01*
X145200000Y-81700000D01*
X145200000Y-84200000D02*
X150700000Y-84200000D01*
X150700000Y-84700000D01*
X145200000Y-84700000D01*
X145200000Y-84200000D01*
X145200000Y-86700000D02*
X150700000Y-86700000D01*
X150700000Y-87200000D01*
X145200000Y-87200000D01*
X145200000Y-86700000D01*
%TO.C,J2*%
X139590000Y-62940000D02*
X139590000Y-64360000D01*
X139590000Y-64360000D02*
X144090000Y-64360000D01*
X139590000Y-74140000D02*
X144090000Y-74140000D01*
X139590000Y-75560000D02*
X139590000Y-74140000D01*
X139900000Y-72700000D02*
X140500000Y-73000000D01*
X139900000Y-73300000D02*
X139900000Y-72700000D01*
X140500000Y-73000000D02*
X139900000Y-73300000D01*
X144090000Y-64360000D02*
X144090000Y-69250000D01*
X144090000Y-74140000D02*
X144090000Y-69250000D01*
X151310000Y-62940000D02*
X139590000Y-62940000D01*
X151310000Y-69250000D02*
X151310000Y-62940000D01*
X151310000Y-69250000D02*
X151310000Y-75560000D01*
X151310000Y-75560000D02*
X139590000Y-75560000D01*
X145200000Y-65250000D02*
X150700000Y-65250000D01*
X150700000Y-65750000D01*
X145200000Y-65750000D01*
X145200000Y-65250000D01*
X145200000Y-67750000D02*
X150700000Y-67750000D01*
X150700000Y-68250000D01*
X145200000Y-68250000D01*
X145200000Y-67750000D01*
X145200000Y-70250000D02*
X150700000Y-70250000D01*
X150700000Y-70750000D01*
X145200000Y-70750000D01*
X145200000Y-70250000D01*
X145200000Y-72750000D02*
X150700000Y-72750000D01*
X150700000Y-73250000D01*
X145200000Y-73250000D01*
X145200000Y-72750000D01*
%TO.C,J12*%
X139590000Y-118940000D02*
X139590000Y-120360000D01*
X139590000Y-120360000D02*
X144090000Y-120360000D01*
X139590000Y-130140000D02*
X144090000Y-130140000D01*
X139590000Y-131560000D02*
X139590000Y-130140000D01*
X139900000Y-128700000D02*
X140500000Y-129000000D01*
X139900000Y-129300000D02*
X139900000Y-128700000D01*
X140500000Y-129000000D02*
X139900000Y-129300000D01*
X144090000Y-120360000D02*
X144090000Y-125250000D01*
X144090000Y-130140000D02*
X144090000Y-125250000D01*
X151310000Y-118940000D02*
X139590000Y-118940000D01*
X151310000Y-125250000D02*
X151310000Y-118940000D01*
X151310000Y-125250000D02*
X151310000Y-131560000D01*
X151310000Y-131560000D02*
X139590000Y-131560000D01*
X145200000Y-121250000D02*
X150700000Y-121250000D01*
X150700000Y-121750000D01*
X145200000Y-121750000D01*
X145200000Y-121250000D01*
X145200000Y-123750000D02*
X150700000Y-123750000D01*
X150700000Y-124250000D01*
X145200000Y-124250000D01*
X145200000Y-123750000D01*
X145200000Y-126250000D02*
X150700000Y-126250000D01*
X150700000Y-126750000D01*
X145200000Y-126750000D01*
X145200000Y-126250000D01*
X145200000Y-128750000D02*
X150700000Y-128750000D01*
X150700000Y-129250000D01*
X145200000Y-129250000D01*
X145200000Y-128750000D01*
%TO.C,J6*%
X82690000Y-118940000D02*
X94410000Y-118940000D01*
X82690000Y-125250000D02*
X82690000Y-118940000D01*
X82690000Y-125250000D02*
X82690000Y-131560000D01*
X82690000Y-131560000D02*
X94410000Y-131560000D01*
X89910000Y-120360000D02*
X89910000Y-125250000D01*
X89910000Y-130140000D02*
X89910000Y-125250000D01*
X93500000Y-121500000D02*
X94100000Y-121200000D01*
X94100000Y-121200000D02*
X94100000Y-121800000D01*
X94100000Y-121800000D02*
X93500000Y-121500000D01*
X94410000Y-118940000D02*
X94410000Y-120360000D01*
X94410000Y-120360000D02*
X89910000Y-120360000D01*
X94410000Y-130140000D02*
X89910000Y-130140000D01*
X94410000Y-131560000D02*
X94410000Y-130140000D01*
X83300000Y-121250000D02*
X88800000Y-121250000D01*
X88800000Y-121750000D01*
X83300000Y-121750000D01*
X83300000Y-121250000D01*
X83300000Y-123750000D02*
X88800000Y-123750000D01*
X88800000Y-124250000D01*
X83300000Y-124250000D01*
X83300000Y-123750000D01*
X83300000Y-126250000D02*
X88800000Y-126250000D01*
X88800000Y-126750000D01*
X83300000Y-126750000D01*
X83300000Y-126250000D01*
X83300000Y-128750000D02*
X88800000Y-128750000D01*
X88800000Y-129250000D01*
X83300000Y-129250000D01*
X83300000Y-128750000D01*
%TO.C,J14*%
X128763316Y-82270000D02*
X128763316Y-125510000D01*
X128763316Y-82270000D02*
X131423316Y-82270000D01*
X128763316Y-125510000D02*
X131423316Y-125510000D01*
X130093316Y-79670000D02*
X131423316Y-79670000D01*
X131423316Y-79670000D02*
X131423316Y-81000000D01*
X131423316Y-82270000D02*
X131423316Y-125510000D01*
%TO.C,J3*%
X82690000Y-76686926D02*
X94410000Y-76686926D01*
X82690000Y-82996926D02*
X82690000Y-76686926D01*
X82690000Y-82996926D02*
X82690000Y-89306926D01*
X82690000Y-89306926D02*
X94410000Y-89306926D01*
X89910000Y-78106926D02*
X89910000Y-82996926D01*
X89910000Y-87886926D02*
X89910000Y-82996926D01*
X93500000Y-79246926D02*
X94100000Y-78946926D01*
X94100000Y-78946926D02*
X94100000Y-79546926D01*
X94100000Y-79546926D02*
X93500000Y-79246926D01*
X94410000Y-76686926D02*
X94410000Y-78106926D01*
X94410000Y-78106926D02*
X89910000Y-78106926D01*
X94410000Y-87886926D02*
X89910000Y-87886926D01*
X94410000Y-89306926D02*
X94410000Y-87886926D01*
X83300000Y-78996926D02*
X88800000Y-78996926D01*
X88800000Y-79496926D01*
X83300000Y-79496926D01*
X83300000Y-78996926D01*
X83300000Y-81496926D02*
X88800000Y-81496926D01*
X88800000Y-81996926D01*
X83300000Y-81996926D01*
X83300000Y-81496926D01*
X83300000Y-83996926D02*
X88800000Y-83996926D01*
X88800000Y-84496926D01*
X83300000Y-84496926D01*
X83300000Y-83996926D01*
X83300000Y-86496926D02*
X88800000Y-86496926D01*
X88800000Y-86996926D01*
X83300000Y-86996926D01*
X83300000Y-86496926D01*
%TO.C,J1*%
X82690000Y-62636926D02*
X94410000Y-62636926D01*
X82690000Y-68946926D02*
X82690000Y-62636926D01*
X82690000Y-68946926D02*
X82690000Y-75256926D01*
X82690000Y-75256926D02*
X94410000Y-75256926D01*
X89910000Y-64056926D02*
X89910000Y-68946926D01*
X89910000Y-73836926D02*
X89910000Y-68946926D01*
X93500000Y-65196926D02*
X94100000Y-64896926D01*
X94100000Y-64896926D02*
X94100000Y-65496926D01*
X94100000Y-65496926D02*
X93500000Y-65196926D01*
X94410000Y-62636926D02*
X94410000Y-64056926D01*
X94410000Y-64056926D02*
X89910000Y-64056926D01*
X94410000Y-73836926D02*
X89910000Y-73836926D01*
X94410000Y-75256926D02*
X94410000Y-73836926D01*
X83300000Y-64946926D02*
X88800000Y-64946926D01*
X88800000Y-65446926D01*
X83300000Y-65446926D01*
X83300000Y-64946926D01*
X83300000Y-67446926D02*
X88800000Y-67446926D01*
X88800000Y-67946926D01*
X83300000Y-67946926D01*
X83300000Y-67446926D01*
X83300000Y-69946926D02*
X88800000Y-69946926D01*
X88800000Y-70446926D01*
X83300000Y-70446926D01*
X83300000Y-69946926D01*
X83300000Y-72446926D02*
X88800000Y-72446926D01*
X88800000Y-72946926D01*
X83300000Y-72946926D01*
X83300000Y-72446926D01*
%TO.C,J11*%
X139590000Y-132940000D02*
X139590000Y-134360000D01*
X139590000Y-134360000D02*
X144090000Y-134360000D01*
X139590000Y-144140000D02*
X144090000Y-144140000D01*
X139590000Y-145560000D02*
X139590000Y-144140000D01*
X139900000Y-142700000D02*
X140500000Y-143000000D01*
X139900000Y-143300000D02*
X139900000Y-142700000D01*
X140500000Y-143000000D02*
X139900000Y-143300000D01*
X144090000Y-134360000D02*
X144090000Y-139250000D01*
X144090000Y-144140000D02*
X144090000Y-139250000D01*
X151310000Y-132940000D02*
X139590000Y-132940000D01*
X151310000Y-139250000D02*
X151310000Y-132940000D01*
X151310000Y-139250000D02*
X151310000Y-145560000D01*
X151310000Y-145560000D02*
X139590000Y-145560000D01*
X145200000Y-135250000D02*
X150700000Y-135250000D01*
X150700000Y-135750000D01*
X145200000Y-135750000D01*
X145200000Y-135250000D01*
X145200000Y-137750000D02*
X150700000Y-137750000D01*
X150700000Y-138250000D01*
X145200000Y-138250000D01*
X145200000Y-137750000D01*
X145200000Y-140250000D02*
X150700000Y-140250000D01*
X150700000Y-140750000D01*
X145200000Y-140750000D01*
X145200000Y-140250000D01*
X145200000Y-142750000D02*
X150700000Y-142750000D01*
X150700000Y-143250000D01*
X145200000Y-143250000D01*
X145200000Y-142750000D01*
%TO.C,J5*%
X82690000Y-104940000D02*
X94410000Y-104940000D01*
X82690000Y-111250000D02*
X82690000Y-104940000D01*
X82690000Y-111250000D02*
X82690000Y-117560000D01*
X82690000Y-117560000D02*
X94410000Y-117560000D01*
X89910000Y-106360000D02*
X89910000Y-111250000D01*
X89910000Y-116140000D02*
X89910000Y-111250000D01*
X93500000Y-107500000D02*
X94100000Y-107200000D01*
X94100000Y-107200000D02*
X94100000Y-107800000D01*
X94100000Y-107800000D02*
X93500000Y-107500000D01*
X94410000Y-104940000D02*
X94410000Y-106360000D01*
X94410000Y-106360000D02*
X89910000Y-106360000D01*
X94410000Y-116140000D02*
X89910000Y-116140000D01*
X94410000Y-117560000D02*
X94410000Y-116140000D01*
X83300000Y-107250000D02*
X88800000Y-107250000D01*
X88800000Y-107750000D01*
X83300000Y-107750000D01*
X83300000Y-107250000D01*
X83300000Y-109750000D02*
X88800000Y-109750000D01*
X88800000Y-110250000D01*
X83300000Y-110250000D01*
X83300000Y-109750000D01*
X83300000Y-112250000D02*
X88800000Y-112250000D01*
X88800000Y-112750000D01*
X83300000Y-112750000D01*
X83300000Y-112250000D01*
X83300000Y-114750000D02*
X88800000Y-114750000D01*
X88800000Y-115250000D01*
X83300000Y-115250000D01*
X83300000Y-114750000D01*
%TO.C,J13*%
X103363316Y-82270000D02*
X103363316Y-125510000D01*
X103363316Y-82270000D02*
X106023316Y-82270000D01*
X103363316Y-125510000D02*
X106023316Y-125510000D01*
X104693316Y-79670000D02*
X106023316Y-79670000D01*
X106023316Y-79670000D02*
X106023316Y-81000000D01*
X106023316Y-82270000D02*
X106023316Y-125510000D01*
%TO.C,J4*%
X82690000Y-90940000D02*
X94410000Y-90940000D01*
X82690000Y-97250000D02*
X82690000Y-90940000D01*
X82690000Y-97250000D02*
X82690000Y-103560000D01*
X82690000Y-103560000D02*
X94410000Y-103560000D01*
X89910000Y-92360000D02*
X89910000Y-97250000D01*
X89910000Y-102140000D02*
X89910000Y-97250000D01*
X93500000Y-93500000D02*
X94100000Y-93200000D01*
X94100000Y-93200000D02*
X94100000Y-93800000D01*
X94100000Y-93800000D02*
X93500000Y-93500000D01*
X94410000Y-90940000D02*
X94410000Y-92360000D01*
X94410000Y-92360000D02*
X89910000Y-92360000D01*
X94410000Y-102140000D02*
X89910000Y-102140000D01*
X94410000Y-103560000D02*
X94410000Y-102140000D01*
X83300000Y-93250000D02*
X88800000Y-93250000D01*
X88800000Y-93750000D01*
X83300000Y-93750000D01*
X83300000Y-93250000D01*
X83300000Y-95750000D02*
X88800000Y-95750000D01*
X88800000Y-96250000D01*
X83300000Y-96250000D01*
X83300000Y-95750000D01*
X83300000Y-98250000D02*
X88800000Y-98250000D01*
X88800000Y-98750000D01*
X83300000Y-98750000D01*
X83300000Y-98250000D01*
X83300000Y-100750000D02*
X88800000Y-100750000D01*
X88800000Y-101250000D01*
X83300000Y-101250000D01*
X83300000Y-100750000D01*
%TO.C,J8*%
X139590000Y-104990000D02*
X139590000Y-106410000D01*
X139590000Y-106410000D02*
X144090000Y-106410000D01*
X139590000Y-116190000D02*
X144090000Y-116190000D01*
X139590000Y-117610000D02*
X139590000Y-116190000D01*
X139900000Y-114750000D02*
X140500000Y-115050000D01*
X139900000Y-115350000D02*
X139900000Y-114750000D01*
X140500000Y-115050000D02*
X139900000Y-115350000D01*
X144090000Y-106410000D02*
X144090000Y-111300000D01*
X144090000Y-116190000D02*
X144090000Y-111300000D01*
X151310000Y-104990000D02*
X139590000Y-104990000D01*
X151310000Y-111300000D02*
X151310000Y-104990000D01*
X151310000Y-111300000D02*
X151310000Y-117610000D01*
X151310000Y-117610000D02*
X139590000Y-117610000D01*
X145200000Y-107300000D02*
X150700000Y-107300000D01*
X150700000Y-107800000D01*
X145200000Y-107800000D01*
X145200000Y-107300000D01*
X145200000Y-109800000D02*
X150700000Y-109800000D01*
X150700000Y-110300000D01*
X145200000Y-110300000D01*
X145200000Y-109800000D01*
X145200000Y-112300000D02*
X150700000Y-112300000D01*
X150700000Y-112800000D01*
X145200000Y-112800000D01*
X145200000Y-112300000D01*
X145200000Y-114800000D02*
X150700000Y-114800000D01*
X150700000Y-115300000D01*
X145200000Y-115300000D01*
X145200000Y-114800000D01*
%TO.C,J9*%
X139590000Y-90940000D02*
X139590000Y-92360000D01*
X139590000Y-92360000D02*
X144090000Y-92360000D01*
X139590000Y-102140000D02*
X144090000Y-102140000D01*
X139590000Y-103560000D02*
X139590000Y-102140000D01*
X139900000Y-100700000D02*
X140500000Y-101000000D01*
X139900000Y-101300000D02*
X139900000Y-100700000D01*
X140500000Y-101000000D02*
X139900000Y-101300000D01*
X144090000Y-92360000D02*
X144090000Y-97250000D01*
X144090000Y-102140000D02*
X144090000Y-97250000D01*
X151310000Y-90940000D02*
X139590000Y-90940000D01*
X151310000Y-97250000D02*
X151310000Y-90940000D01*
X151310000Y-97250000D02*
X151310000Y-103560000D01*
X151310000Y-103560000D02*
X139590000Y-103560000D01*
X145200000Y-93250000D02*
X150700000Y-93250000D01*
X150700000Y-93750000D01*
X145200000Y-93750000D01*
X145200000Y-93250000D01*
X145200000Y-95750000D02*
X150700000Y-95750000D01*
X150700000Y-96250000D01*
X145200000Y-96250000D01*
X145200000Y-95750000D01*
X145200000Y-98250000D02*
X150700000Y-98250000D01*
X150700000Y-98750000D01*
X145200000Y-98750000D01*
X145200000Y-98250000D01*
X145200000Y-100750000D02*
X150700000Y-100750000D01*
X150700000Y-101250000D01*
X145200000Y-101250000D01*
X145200000Y-100750000D01*
%TD*%
M02*
