M48
; DRILL file KiCad 10.0.3 date 2026-06-16T10:34:38
; FORMAT={-:-/ absolute / metric / decimal}
; #@! TF.CreationDate,2026-06-16T10:34:38+08:00
; #@! TF.GenerationSoftware,Kicad,Pcbnew,10.0.3
; #@! TF.FileFunction,Plated,1,2,PTH
FMAT,2
METRIC
; #@! TA.AperFunction,Plated,PTH,ComponentDrill
T1C0.950
; #@! TA.AperFunction,Plated,PTH,ComponentDrill
T2C1.000
%
G90
G05
T1
X92.0Y-65.197
X92.0Y-67.697
X92.0Y-70.197
X92.0Y-72.697
X92.0Y-79.247
X92.0Y-81.747
X92.0Y-84.247
X92.0Y-86.747
X92.0Y-93.5
X92.0Y-96.0
X92.0Y-98.5
X92.0Y-101.0
X92.0Y-107.5
X92.0Y-110.0
X92.0Y-112.5
X92.0Y-115.0
X92.0Y-121.5
X92.0Y-124.0
X92.0Y-126.5
X92.0Y-129.0
X92.0Y-135.5
X92.0Y-138.0
X92.0Y-140.5
X92.0Y-143.0
X142.0Y-65.5
X142.0Y-68.0
X142.0Y-70.5
X142.0Y-73.0
X142.0Y-79.45
X142.0Y-81.95
X142.0Y-84.45
X142.0Y-86.95
X142.0Y-93.5
X142.0Y-96.0
X142.0Y-98.5
X142.0Y-101.0
X142.0Y-107.55
X142.0Y-110.05
X142.0Y-112.55
X142.0Y-115.05
X142.0Y-121.5
X142.0Y-124.0
X142.0Y-126.5
X142.0Y-129.0
X142.0Y-135.5
X142.0Y-138.0
X142.0Y-140.5
X142.0Y-143.0
T2
X104.693Y-81.0
X104.693Y-83.54
X104.693Y-86.08
X104.693Y-88.62
X104.693Y-91.16
X104.693Y-93.7
X104.693Y-96.24
X104.693Y-98.78
X104.693Y-101.32
X104.693Y-103.86
X104.693Y-106.4
X104.693Y-108.94
X104.693Y-111.48
X104.693Y-114.02
X104.693Y-116.56
X104.693Y-119.1
X104.693Y-121.64
X104.693Y-124.18
X130.093Y-81.0
X130.093Y-83.54
X130.093Y-86.08
X130.093Y-88.62
X130.093Y-91.16
X130.093Y-93.7
X130.093Y-96.24
X130.093Y-98.78
X130.093Y-101.32
X130.093Y-103.86
X130.093Y-106.4
X130.093Y-108.94
X130.093Y-111.48
X130.093Y-114.02
X130.093Y-116.56
X130.093Y-119.1
X130.093Y-121.64
X130.093Y-124.18
M30
