%TF.GenerationSoftware,KiCad,Pcbnew,10.0.3*%
%TF.CreationDate,2026-06-22T15:49:19+08:00*%
%TF.ProjectId,PCB,5043422e-6b69-4636-9164-5f7063625858,rev?*%
%TF.SameCoordinates,Original*%
%TF.FileFunction,Legend,Top*%
%TF.FilePolarity,Positive*%
%FSLAX46Y46*%
G04 Gerber Fmt 4.6, Leading zero omitted, Abs format (unit mm)*
G04 Created by KiCad (PCBNEW 10.0.3) date 2026-06-22 15:49:19*
%MOMM*%
%LPD*%
G01*
G04 APERTURE LIST*
%ADD10C,0.150000*%
%ADD11C,0.120000*%
G04 APERTURE END LIST*
D10*
X94964819Y-139583333D02*
X95679104Y-139583333D01*
X95679104Y-139583333D02*
X95821961Y-139630952D01*
X95821961Y-139630952D02*
X95917200Y-139726190D01*
X95917200Y-139726190D02*
X95964819Y-139869047D01*
X95964819Y-139869047D02*
X95964819Y-139964285D01*
X94964819Y-139202380D02*
X94964819Y-138535714D01*
X94964819Y-138535714D02*
X95964819Y-138964285D01*
X94454819Y-138261904D02*
X93454819Y-138261904D01*
X93454819Y-138261904D02*
X93454819Y-138023809D01*
X93454819Y-138023809D02*
X93502438Y-137880952D01*
X93502438Y-137880952D02*
X93597676Y-137785714D01*
X93597676Y-137785714D02*
X93692914Y-137738095D01*
X93692914Y-137738095D02*
X93883390Y-137690476D01*
X93883390Y-137690476D02*
X94026247Y-137690476D01*
X94026247Y-137690476D02*
X94216723Y-137738095D01*
X94216723Y-137738095D02*
X94311961Y-137785714D01*
X94311961Y-137785714D02*
X94407200Y-137880952D01*
X94407200Y-137880952D02*
X94454819Y-138023809D01*
X94454819Y-138023809D02*
X94454819Y-138261904D01*
X94407200Y-140785713D02*
X94454819Y-140642856D01*
X94454819Y-140642856D02*
X94454819Y-140404761D01*
X94454819Y-140404761D02*
X94407200Y-140309523D01*
X94407200Y-140309523D02*
X94359580Y-140261904D01*
X94359580Y-140261904D02*
X94264342Y-140214285D01*
X94264342Y-140214285D02*
X94169104Y-140214285D01*
X94169104Y-140214285D02*
X94073866Y-140261904D01*
X94073866Y-140261904D02*
X94026247Y-140309523D01*
X94026247Y-140309523D02*
X93978628Y-140404761D01*
X93978628Y-140404761D02*
X93931009Y-140595237D01*
X93931009Y-140595237D02*
X93883390Y-140690475D01*
X93883390Y-140690475D02*
X93835771Y-140738094D01*
X93835771Y-140738094D02*
X93740533Y-140785713D01*
X93740533Y-140785713D02*
X93645295Y-140785713D01*
X93645295Y-140785713D02*
X93550057Y-140738094D01*
X93550057Y-140738094D02*
X93502438Y-140690475D01*
X93502438Y-140690475D02*
X93454819Y-140595237D01*
X93454819Y-140595237D02*
X93454819Y-140357142D01*
X93454819Y-140357142D02*
X93502438Y-140214285D01*
X93454819Y-143333332D02*
X94454819Y-142999999D01*
X94454819Y-142999999D02*
X93454819Y-142666666D01*
X137944819Y-84009523D02*
X138659104Y-84009523D01*
X138659104Y-84009523D02*
X138801961Y-84057142D01*
X138801961Y-84057142D02*
X138897200Y-84152380D01*
X138897200Y-84152380D02*
X138944819Y-84295237D01*
X138944819Y-84295237D02*
X138944819Y-84390475D01*
X138944819Y-83009523D02*
X138944819Y-83580951D01*
X138944819Y-83295237D02*
X137944819Y-83295237D01*
X137944819Y-83295237D02*
X138087676Y-83390475D01*
X138087676Y-83390475D02*
X138182914Y-83485713D01*
X138182914Y-83485713D02*
X138230533Y-83580951D01*
X137944819Y-82390475D02*
X137944819Y-82295237D01*
X137944819Y-82295237D02*
X137992438Y-82199999D01*
X137992438Y-82199999D02*
X138040057Y-82152380D01*
X138040057Y-82152380D02*
X138135295Y-82104761D01*
X138135295Y-82104761D02*
X138325771Y-82057142D01*
X138325771Y-82057142D02*
X138563866Y-82057142D01*
X138563866Y-82057142D02*
X138754342Y-82104761D01*
X138754342Y-82104761D02*
X138849580Y-82152380D01*
X138849580Y-82152380D02*
X138897200Y-82199999D01*
X138897200Y-82199999D02*
X138944819Y-82295237D01*
X138944819Y-82295237D02*
X138944819Y-82390475D01*
X138944819Y-82390475D02*
X138897200Y-82485713D01*
X138897200Y-82485713D02*
X138849580Y-82533332D01*
X138849580Y-82533332D02*
X138754342Y-82580951D01*
X138754342Y-82580951D02*
X138563866Y-82628570D01*
X138563866Y-82628570D02*
X138325771Y-82628570D01*
X138325771Y-82628570D02*
X138135295Y-82580951D01*
X138135295Y-82580951D02*
X138040057Y-82533332D01*
X138040057Y-82533332D02*
X137992438Y-82485713D01*
X137992438Y-82485713D02*
X137944819Y-82390475D01*
X139454819Y-79783332D02*
X140454819Y-79449999D01*
X140454819Y-79449999D02*
X139454819Y-79116666D01*
X140407200Y-82235713D02*
X140454819Y-82092856D01*
X140454819Y-82092856D02*
X140454819Y-81854761D01*
X140454819Y-81854761D02*
X140407200Y-81759523D01*
X140407200Y-81759523D02*
X140359580Y-81711904D01*
X140359580Y-81711904D02*
X140264342Y-81664285D01*
X140264342Y-81664285D02*
X140169104Y-81664285D01*
X140169104Y-81664285D02*
X140073866Y-81711904D01*
X140073866Y-81711904D02*
X140026247Y-81759523D01*
X140026247Y-81759523D02*
X139978628Y-81854761D01*
X139978628Y-81854761D02*
X139931009Y-82045237D01*
X139931009Y-82045237D02*
X139883390Y-82140475D01*
X139883390Y-82140475D02*
X139835771Y-82188094D01*
X139835771Y-82188094D02*
X139740533Y-82235713D01*
X139740533Y-82235713D02*
X139645295Y-82235713D01*
X139645295Y-82235713D02*
X139550057Y-82188094D01*
X139550057Y-82188094D02*
X139502438Y-82140475D01*
X139502438Y-82140475D02*
X139454819Y-82045237D01*
X139454819Y-82045237D02*
X139454819Y-81807142D01*
X139454819Y-81807142D02*
X139502438Y-81664285D01*
X140454819Y-84711904D02*
X139454819Y-84711904D01*
X139454819Y-84711904D02*
X139454819Y-84473809D01*
X139454819Y-84473809D02*
X139502438Y-84330952D01*
X139502438Y-84330952D02*
X139597676Y-84235714D01*
X139597676Y-84235714D02*
X139692914Y-84188095D01*
X139692914Y-84188095D02*
X139883390Y-84140476D01*
X139883390Y-84140476D02*
X140026247Y-84140476D01*
X140026247Y-84140476D02*
X140216723Y-84188095D01*
X140216723Y-84188095D02*
X140311961Y-84235714D01*
X140311961Y-84235714D02*
X140407200Y-84330952D01*
X140407200Y-84330952D02*
X140454819Y-84473809D01*
X140454819Y-84473809D02*
X140454819Y-84711904D01*
X137944819Y-69583333D02*
X138659104Y-69583333D01*
X138659104Y-69583333D02*
X138801961Y-69630952D01*
X138801961Y-69630952D02*
X138897200Y-69726190D01*
X138897200Y-69726190D02*
X138944819Y-69869047D01*
X138944819Y-69869047D02*
X138944819Y-69964285D01*
X138040057Y-69154761D02*
X137992438Y-69107142D01*
X137992438Y-69107142D02*
X137944819Y-69011904D01*
X137944819Y-69011904D02*
X137944819Y-68773809D01*
X137944819Y-68773809D02*
X137992438Y-68678571D01*
X137992438Y-68678571D02*
X138040057Y-68630952D01*
X138040057Y-68630952D02*
X138135295Y-68583333D01*
X138135295Y-68583333D02*
X138230533Y-68583333D01*
X138230533Y-68583333D02*
X138373390Y-68630952D01*
X138373390Y-68630952D02*
X138944819Y-69202380D01*
X138944819Y-69202380D02*
X138944819Y-68583333D01*
X139454819Y-65833332D02*
X140454819Y-65499999D01*
X140454819Y-65499999D02*
X139454819Y-65166666D01*
X140407200Y-68285713D02*
X140454819Y-68142856D01*
X140454819Y-68142856D02*
X140454819Y-67904761D01*
X140454819Y-67904761D02*
X140407200Y-67809523D01*
X140407200Y-67809523D02*
X140359580Y-67761904D01*
X140359580Y-67761904D02*
X140264342Y-67714285D01*
X140264342Y-67714285D02*
X140169104Y-67714285D01*
X140169104Y-67714285D02*
X140073866Y-67761904D01*
X140073866Y-67761904D02*
X140026247Y-67809523D01*
X140026247Y-67809523D02*
X139978628Y-67904761D01*
X139978628Y-67904761D02*
X139931009Y-68095237D01*
X139931009Y-68095237D02*
X139883390Y-68190475D01*
X139883390Y-68190475D02*
X139835771Y-68238094D01*
X139835771Y-68238094D02*
X139740533Y-68285713D01*
X139740533Y-68285713D02*
X139645295Y-68285713D01*
X139645295Y-68285713D02*
X139550057Y-68238094D01*
X139550057Y-68238094D02*
X139502438Y-68190475D01*
X139502438Y-68190475D02*
X139454819Y-68095237D01*
X139454819Y-68095237D02*
X139454819Y-67857142D01*
X139454819Y-67857142D02*
X139502438Y-67714285D01*
X140454819Y-70761904D02*
X139454819Y-70761904D01*
X139454819Y-70761904D02*
X139454819Y-70523809D01*
X139454819Y-70523809D02*
X139502438Y-70380952D01*
X139502438Y-70380952D02*
X139597676Y-70285714D01*
X139597676Y-70285714D02*
X139692914Y-70238095D01*
X139692914Y-70238095D02*
X139883390Y-70190476D01*
X139883390Y-70190476D02*
X140026247Y-70190476D01*
X140026247Y-70190476D02*
X140216723Y-70238095D01*
X140216723Y-70238095D02*
X140311961Y-70285714D01*
X140311961Y-70285714D02*
X140407200Y-70380952D01*
X140407200Y-70380952D02*
X140454819Y-70523809D01*
X140454819Y-70523809D02*
X140454819Y-70761904D01*
X137944819Y-126059523D02*
X138659104Y-126059523D01*
X138659104Y-126059523D02*
X138801961Y-126107142D01*
X138801961Y-126107142D02*
X138897200Y-126202380D01*
X138897200Y-126202380D02*
X138944819Y-126345237D01*
X138944819Y-126345237D02*
X138944819Y-126440475D01*
X138944819Y-125059523D02*
X138944819Y-125630951D01*
X138944819Y-125345237D02*
X137944819Y-125345237D01*
X137944819Y-125345237D02*
X138087676Y-125440475D01*
X138087676Y-125440475D02*
X138182914Y-125535713D01*
X138182914Y-125535713D02*
X138230533Y-125630951D01*
X138040057Y-124678570D02*
X137992438Y-124630951D01*
X137992438Y-124630951D02*
X137944819Y-124535713D01*
X137944819Y-124535713D02*
X137944819Y-124297618D01*
X137944819Y-124297618D02*
X137992438Y-124202380D01*
X137992438Y-124202380D02*
X138040057Y-124154761D01*
X138040057Y-124154761D02*
X138135295Y-124107142D01*
X138135295Y-124107142D02*
X138230533Y-124107142D01*
X138230533Y-124107142D02*
X138373390Y-124154761D01*
X138373390Y-124154761D02*
X138944819Y-124726189D01*
X138944819Y-124726189D02*
X138944819Y-124107142D01*
X139454819Y-121833332D02*
X140454819Y-121499999D01*
X140454819Y-121499999D02*
X139454819Y-121166666D01*
X140407200Y-124285713D02*
X140454819Y-124142856D01*
X140454819Y-124142856D02*
X140454819Y-123904761D01*
X140454819Y-123904761D02*
X140407200Y-123809523D01*
X140407200Y-123809523D02*
X140359580Y-123761904D01*
X140359580Y-123761904D02*
X140264342Y-123714285D01*
X140264342Y-123714285D02*
X140169104Y-123714285D01*
X140169104Y-123714285D02*
X140073866Y-123761904D01*
X140073866Y-123761904D02*
X140026247Y-123809523D01*
X140026247Y-123809523D02*
X139978628Y-123904761D01*
X139978628Y-123904761D02*
X139931009Y-124095237D01*
X139931009Y-124095237D02*
X139883390Y-124190475D01*
X139883390Y-124190475D02*
X139835771Y-124238094D01*
X139835771Y-124238094D02*
X139740533Y-124285713D01*
X139740533Y-124285713D02*
X139645295Y-124285713D01*
X139645295Y-124285713D02*
X139550057Y-124238094D01*
X139550057Y-124238094D02*
X139502438Y-124190475D01*
X139502438Y-124190475D02*
X139454819Y-124095237D01*
X139454819Y-124095237D02*
X139454819Y-123857142D01*
X139454819Y-123857142D02*
X139502438Y-123714285D01*
X140454819Y-126761904D02*
X139454819Y-126761904D01*
X139454819Y-126761904D02*
X139454819Y-126523809D01*
X139454819Y-126523809D02*
X139502438Y-126380952D01*
X139502438Y-126380952D02*
X139597676Y-126285714D01*
X139597676Y-126285714D02*
X139692914Y-126238095D01*
X139692914Y-126238095D02*
X139883390Y-126190476D01*
X139883390Y-126190476D02*
X140026247Y-126190476D01*
X140026247Y-126190476D02*
X140216723Y-126238095D01*
X140216723Y-126238095D02*
X140311961Y-126285714D01*
X140311961Y-126285714D02*
X140407200Y-126380952D01*
X140407200Y-126380952D02*
X140454819Y-126523809D01*
X140454819Y-126523809D02*
X140454819Y-126761904D01*
X94964819Y-125583333D02*
X95679104Y-125583333D01*
X95679104Y-125583333D02*
X95821961Y-125630952D01*
X95821961Y-125630952D02*
X95917200Y-125726190D01*
X95917200Y-125726190D02*
X95964819Y-125869047D01*
X95964819Y-125869047D02*
X95964819Y-125964285D01*
X94964819Y-124678571D02*
X94964819Y-124869047D01*
X94964819Y-124869047D02*
X95012438Y-124964285D01*
X95012438Y-124964285D02*
X95060057Y-125011904D01*
X95060057Y-125011904D02*
X95202914Y-125107142D01*
X95202914Y-125107142D02*
X95393390Y-125154761D01*
X95393390Y-125154761D02*
X95774342Y-125154761D01*
X95774342Y-125154761D02*
X95869580Y-125107142D01*
X95869580Y-125107142D02*
X95917200Y-125059523D01*
X95917200Y-125059523D02*
X95964819Y-124964285D01*
X95964819Y-124964285D02*
X95964819Y-124773809D01*
X95964819Y-124773809D02*
X95917200Y-124678571D01*
X95917200Y-124678571D02*
X95869580Y-124630952D01*
X95869580Y-124630952D02*
X95774342Y-124583333D01*
X95774342Y-124583333D02*
X95536247Y-124583333D01*
X95536247Y-124583333D02*
X95441009Y-124630952D01*
X95441009Y-124630952D02*
X95393390Y-124678571D01*
X95393390Y-124678571D02*
X95345771Y-124773809D01*
X95345771Y-124773809D02*
X95345771Y-124964285D01*
X95345771Y-124964285D02*
X95393390Y-125059523D01*
X95393390Y-125059523D02*
X95441009Y-125107142D01*
X95441009Y-125107142D02*
X95536247Y-125154761D01*
X94454819Y-124261904D02*
X93454819Y-124261904D01*
X93454819Y-124261904D02*
X93454819Y-124023809D01*
X93454819Y-124023809D02*
X93502438Y-123880952D01*
X93502438Y-123880952D02*
X93597676Y-123785714D01*
X93597676Y-123785714D02*
X93692914Y-123738095D01*
X93692914Y-123738095D02*
X93883390Y-123690476D01*
X93883390Y-123690476D02*
X94026247Y-123690476D01*
X94026247Y-123690476D02*
X94216723Y-123738095D01*
X94216723Y-123738095D02*
X94311961Y-123785714D01*
X94311961Y-123785714D02*
X94407200Y-123880952D01*
X94407200Y-123880952D02*
X94454819Y-124023809D01*
X94454819Y-124023809D02*
X94454819Y-124261904D01*
X94407200Y-126785713D02*
X94454819Y-126642856D01*
X94454819Y-126642856D02*
X94454819Y-126404761D01*
X94454819Y-126404761D02*
X94407200Y-126309523D01*
X94407200Y-126309523D02*
X94359580Y-126261904D01*
X94359580Y-126261904D02*
X94264342Y-126214285D01*
X94264342Y-126214285D02*
X94169104Y-126214285D01*
X94169104Y-126214285D02*
X94073866Y-126261904D01*
X94073866Y-126261904D02*
X94026247Y-126309523D01*
X94026247Y-126309523D02*
X93978628Y-126404761D01*
X93978628Y-126404761D02*
X93931009Y-126595237D01*
X93931009Y-126595237D02*
X93883390Y-126690475D01*
X93883390Y-126690475D02*
X93835771Y-126738094D01*
X93835771Y-126738094D02*
X93740533Y-126785713D01*
X93740533Y-126785713D02*
X93645295Y-126785713D01*
X93645295Y-126785713D02*
X93550057Y-126738094D01*
X93550057Y-126738094D02*
X93502438Y-126690475D01*
X93502438Y-126690475D02*
X93454819Y-126595237D01*
X93454819Y-126595237D02*
X93454819Y-126357142D01*
X93454819Y-126357142D02*
X93502438Y-126214285D01*
X93454819Y-129333332D02*
X94454819Y-128999999D01*
X94454819Y-128999999D02*
X93454819Y-128666666D01*
X129283792Y-77684819D02*
X129283792Y-78399104D01*
X129283792Y-78399104D02*
X129236173Y-78541961D01*
X129236173Y-78541961D02*
X129140935Y-78637200D01*
X129140935Y-78637200D02*
X128998078Y-78684819D01*
X128998078Y-78684819D02*
X128902840Y-78684819D01*
X130283792Y-78684819D02*
X129712364Y-78684819D01*
X129998078Y-78684819D02*
X129998078Y-77684819D01*
X129998078Y-77684819D02*
X129902840Y-77827676D01*
X129902840Y-77827676D02*
X129807602Y-77922914D01*
X129807602Y-77922914D02*
X129712364Y-77970533D01*
X131140935Y-78018152D02*
X131140935Y-78684819D01*
X130902840Y-77637200D02*
X130664745Y-78351485D01*
X130664745Y-78351485D02*
X131283792Y-78351485D01*
X133261904Y-83042438D02*
X133166666Y-82994819D01*
X133166666Y-82994819D02*
X133023809Y-82994819D01*
X133023809Y-82994819D02*
X132880952Y-83042438D01*
X132880952Y-83042438D02*
X132785714Y-83137676D01*
X132785714Y-83137676D02*
X132738095Y-83232914D01*
X132738095Y-83232914D02*
X132690476Y-83423390D01*
X132690476Y-83423390D02*
X132690476Y-83566247D01*
X132690476Y-83566247D02*
X132738095Y-83756723D01*
X132738095Y-83756723D02*
X132785714Y-83851961D01*
X132785714Y-83851961D02*
X132880952Y-83947200D01*
X132880952Y-83947200D02*
X133023809Y-83994819D01*
X133023809Y-83994819D02*
X133119047Y-83994819D01*
X133119047Y-83994819D02*
X133261904Y-83947200D01*
X133261904Y-83947200D02*
X133309523Y-83899580D01*
X133309523Y-83899580D02*
X133309523Y-83566247D01*
X133309523Y-83566247D02*
X133119047Y-83566247D01*
X132714286Y-93250057D02*
X132761905Y-93202438D01*
X132761905Y-93202438D02*
X132857143Y-93154819D01*
X132857143Y-93154819D02*
X133095238Y-93154819D01*
X133095238Y-93154819D02*
X133190476Y-93202438D01*
X133190476Y-93202438D02*
X133238095Y-93250057D01*
X133238095Y-93250057D02*
X133285714Y-93345295D01*
X133285714Y-93345295D02*
X133285714Y-93440533D01*
X133285714Y-93440533D02*
X133238095Y-93583390D01*
X133238095Y-93583390D02*
X132666667Y-94154819D01*
X132666667Y-94154819D02*
X133285714Y-94154819D01*
X132809523Y-101774819D02*
X132238095Y-101774819D01*
X132523809Y-101774819D02*
X132523809Y-100774819D01*
X132523809Y-100774819D02*
X132428571Y-100917676D01*
X132428571Y-100917676D02*
X132333333Y-101012914D01*
X132333333Y-101012914D02*
X132238095Y-101060533D01*
X133428571Y-100774819D02*
X133523809Y-100774819D01*
X133523809Y-100774819D02*
X133619047Y-100822438D01*
X133619047Y-100822438D02*
X133666666Y-100870057D01*
X133666666Y-100870057D02*
X133714285Y-100965295D01*
X133714285Y-100965295D02*
X133761904Y-101155771D01*
X133761904Y-101155771D02*
X133761904Y-101393866D01*
X133761904Y-101393866D02*
X133714285Y-101584342D01*
X133714285Y-101584342D02*
X133666666Y-101679580D01*
X133666666Y-101679580D02*
X133619047Y-101727200D01*
X133619047Y-101727200D02*
X133523809Y-101774819D01*
X133523809Y-101774819D02*
X133428571Y-101774819D01*
X133428571Y-101774819D02*
X133333333Y-101727200D01*
X133333333Y-101727200D02*
X133285714Y-101679580D01*
X133285714Y-101679580D02*
X133238095Y-101584342D01*
X133238095Y-101584342D02*
X133190476Y-101393866D01*
X133190476Y-101393866D02*
X133190476Y-101155771D01*
X133190476Y-101155771D02*
X133238095Y-100965295D01*
X133238095Y-100965295D02*
X133285714Y-100870057D01*
X133285714Y-100870057D02*
X133333333Y-100822438D01*
X133333333Y-100822438D02*
X133428571Y-100774819D01*
X132809524Y-104314819D02*
X133000000Y-104314819D01*
X133000000Y-104314819D02*
X133095238Y-104267200D01*
X133095238Y-104267200D02*
X133142857Y-104219580D01*
X133142857Y-104219580D02*
X133238095Y-104076723D01*
X133238095Y-104076723D02*
X133285714Y-103886247D01*
X133285714Y-103886247D02*
X133285714Y-103505295D01*
X133285714Y-103505295D02*
X133238095Y-103410057D01*
X133238095Y-103410057D02*
X133190476Y-103362438D01*
X133190476Y-103362438D02*
X133095238Y-103314819D01*
X133095238Y-103314819D02*
X132904762Y-103314819D01*
X132904762Y-103314819D02*
X132809524Y-103362438D01*
X132809524Y-103362438D02*
X132761905Y-103410057D01*
X132761905Y-103410057D02*
X132714286Y-103505295D01*
X132714286Y-103505295D02*
X132714286Y-103743390D01*
X132714286Y-103743390D02*
X132761905Y-103838628D01*
X132761905Y-103838628D02*
X132809524Y-103886247D01*
X132809524Y-103886247D02*
X132904762Y-103933866D01*
X132904762Y-103933866D02*
X133095238Y-103933866D01*
X133095238Y-103933866D02*
X133190476Y-103886247D01*
X133190476Y-103886247D02*
X133238095Y-103838628D01*
X133238095Y-103838628D02*
X133285714Y-103743390D01*
X132904762Y-106283390D02*
X132809524Y-106235771D01*
X132809524Y-106235771D02*
X132761905Y-106188152D01*
X132761905Y-106188152D02*
X132714286Y-106092914D01*
X132714286Y-106092914D02*
X132714286Y-106045295D01*
X132714286Y-106045295D02*
X132761905Y-105950057D01*
X132761905Y-105950057D02*
X132809524Y-105902438D01*
X132809524Y-105902438D02*
X132904762Y-105854819D01*
X132904762Y-105854819D02*
X133095238Y-105854819D01*
X133095238Y-105854819D02*
X133190476Y-105902438D01*
X133190476Y-105902438D02*
X133238095Y-105950057D01*
X133238095Y-105950057D02*
X133285714Y-106045295D01*
X133285714Y-106045295D02*
X133285714Y-106092914D01*
X133285714Y-106092914D02*
X133238095Y-106188152D01*
X133238095Y-106188152D02*
X133190476Y-106235771D01*
X133190476Y-106235771D02*
X133095238Y-106283390D01*
X133095238Y-106283390D02*
X132904762Y-106283390D01*
X132904762Y-106283390D02*
X132809524Y-106331009D01*
X132809524Y-106331009D02*
X132761905Y-106378628D01*
X132761905Y-106378628D02*
X132714286Y-106473866D01*
X132714286Y-106473866D02*
X132714286Y-106664342D01*
X132714286Y-106664342D02*
X132761905Y-106759580D01*
X132761905Y-106759580D02*
X132809524Y-106807200D01*
X132809524Y-106807200D02*
X132904762Y-106854819D01*
X132904762Y-106854819D02*
X133095238Y-106854819D01*
X133095238Y-106854819D02*
X133190476Y-106807200D01*
X133190476Y-106807200D02*
X133238095Y-106759580D01*
X133238095Y-106759580D02*
X133285714Y-106664342D01*
X133285714Y-106664342D02*
X133285714Y-106473866D01*
X133285714Y-106473866D02*
X133238095Y-106378628D01*
X133238095Y-106378628D02*
X133190476Y-106331009D01*
X133190476Y-106331009D02*
X133095238Y-106283390D01*
X132809523Y-109394819D02*
X132238095Y-109394819D01*
X132523809Y-109394819D02*
X132523809Y-108394819D01*
X132523809Y-108394819D02*
X132428571Y-108537676D01*
X132428571Y-108537676D02*
X132333333Y-108632914D01*
X132333333Y-108632914D02*
X132238095Y-108680533D01*
X133190476Y-108490057D02*
X133238095Y-108442438D01*
X133238095Y-108442438D02*
X133333333Y-108394819D01*
X133333333Y-108394819D02*
X133571428Y-108394819D01*
X133571428Y-108394819D02*
X133666666Y-108442438D01*
X133666666Y-108442438D02*
X133714285Y-108490057D01*
X133714285Y-108490057D02*
X133761904Y-108585295D01*
X133761904Y-108585295D02*
X133761904Y-108680533D01*
X133761904Y-108680533D02*
X133714285Y-108823390D01*
X133714285Y-108823390D02*
X133142857Y-109394819D01*
X133142857Y-109394819D02*
X133761904Y-109394819D01*
X132809523Y-111934819D02*
X132238095Y-111934819D01*
X132523809Y-111934819D02*
X132523809Y-110934819D01*
X132523809Y-110934819D02*
X132428571Y-111077676D01*
X132428571Y-111077676D02*
X132333333Y-111172914D01*
X132333333Y-111172914D02*
X132238095Y-111220533D01*
X133761904Y-111934819D02*
X133190476Y-111934819D01*
X133476190Y-111934819D02*
X133476190Y-110934819D01*
X133476190Y-110934819D02*
X133380952Y-111077676D01*
X133380952Y-111077676D02*
X133285714Y-111172914D01*
X133285714Y-111172914D02*
X133190476Y-111220533D01*
X94964819Y-83330259D02*
X95679104Y-83330259D01*
X95679104Y-83330259D02*
X95821961Y-83377878D01*
X95821961Y-83377878D02*
X95917200Y-83473116D01*
X95917200Y-83473116D02*
X95964819Y-83615973D01*
X95964819Y-83615973D02*
X95964819Y-83711211D01*
X94964819Y-82949306D02*
X94964819Y-82330259D01*
X94964819Y-82330259D02*
X95345771Y-82663592D01*
X95345771Y-82663592D02*
X95345771Y-82520735D01*
X95345771Y-82520735D02*
X95393390Y-82425497D01*
X95393390Y-82425497D02*
X95441009Y-82377878D01*
X95441009Y-82377878D02*
X95536247Y-82330259D01*
X95536247Y-82330259D02*
X95774342Y-82330259D01*
X95774342Y-82330259D02*
X95869580Y-82377878D01*
X95869580Y-82377878D02*
X95917200Y-82425497D01*
X95917200Y-82425497D02*
X95964819Y-82520735D01*
X95964819Y-82520735D02*
X95964819Y-82806449D01*
X95964819Y-82806449D02*
X95917200Y-82901687D01*
X95917200Y-82901687D02*
X95869580Y-82949306D01*
X94454819Y-82008830D02*
X93454819Y-82008830D01*
X93454819Y-82008830D02*
X93454819Y-81770735D01*
X93454819Y-81770735D02*
X93502438Y-81627878D01*
X93502438Y-81627878D02*
X93597676Y-81532640D01*
X93597676Y-81532640D02*
X93692914Y-81485021D01*
X93692914Y-81485021D02*
X93883390Y-81437402D01*
X93883390Y-81437402D02*
X94026247Y-81437402D01*
X94026247Y-81437402D02*
X94216723Y-81485021D01*
X94216723Y-81485021D02*
X94311961Y-81532640D01*
X94311961Y-81532640D02*
X94407200Y-81627878D01*
X94407200Y-81627878D02*
X94454819Y-81770735D01*
X94454819Y-81770735D02*
X94454819Y-82008830D01*
X94407200Y-84532639D02*
X94454819Y-84389782D01*
X94454819Y-84389782D02*
X94454819Y-84151687D01*
X94454819Y-84151687D02*
X94407200Y-84056449D01*
X94407200Y-84056449D02*
X94359580Y-84008830D01*
X94359580Y-84008830D02*
X94264342Y-83961211D01*
X94264342Y-83961211D02*
X94169104Y-83961211D01*
X94169104Y-83961211D02*
X94073866Y-84008830D01*
X94073866Y-84008830D02*
X94026247Y-84056449D01*
X94026247Y-84056449D02*
X93978628Y-84151687D01*
X93978628Y-84151687D02*
X93931009Y-84342163D01*
X93931009Y-84342163D02*
X93883390Y-84437401D01*
X93883390Y-84437401D02*
X93835771Y-84485020D01*
X93835771Y-84485020D02*
X93740533Y-84532639D01*
X93740533Y-84532639D02*
X93645295Y-84532639D01*
X93645295Y-84532639D02*
X93550057Y-84485020D01*
X93550057Y-84485020D02*
X93502438Y-84437401D01*
X93502438Y-84437401D02*
X93454819Y-84342163D01*
X93454819Y-84342163D02*
X93454819Y-84104068D01*
X93454819Y-84104068D02*
X93502438Y-83961211D01*
X93454819Y-87080258D02*
X94454819Y-86746925D01*
X94454819Y-86746925D02*
X93454819Y-86413592D01*
X94964819Y-69280259D02*
X95679104Y-69280259D01*
X95679104Y-69280259D02*
X95821961Y-69327878D01*
X95821961Y-69327878D02*
X95917200Y-69423116D01*
X95917200Y-69423116D02*
X95964819Y-69565973D01*
X95964819Y-69565973D02*
X95964819Y-69661211D01*
X95964819Y-68280259D02*
X95964819Y-68851687D01*
X95964819Y-68565973D02*
X94964819Y-68565973D01*
X94964819Y-68565973D02*
X95107676Y-68661211D01*
X95107676Y-68661211D02*
X95202914Y-68756449D01*
X95202914Y-68756449D02*
X95250533Y-68851687D01*
X94454819Y-67958830D02*
X93454819Y-67958830D01*
X93454819Y-67958830D02*
X93454819Y-67720735D01*
X93454819Y-67720735D02*
X93502438Y-67577878D01*
X93502438Y-67577878D02*
X93597676Y-67482640D01*
X93597676Y-67482640D02*
X93692914Y-67435021D01*
X93692914Y-67435021D02*
X93883390Y-67387402D01*
X93883390Y-67387402D02*
X94026247Y-67387402D01*
X94026247Y-67387402D02*
X94216723Y-67435021D01*
X94216723Y-67435021D02*
X94311961Y-67482640D01*
X94311961Y-67482640D02*
X94407200Y-67577878D01*
X94407200Y-67577878D02*
X94454819Y-67720735D01*
X94454819Y-67720735D02*
X94454819Y-67958830D01*
X94407200Y-70482639D02*
X94454819Y-70339782D01*
X94454819Y-70339782D02*
X94454819Y-70101687D01*
X94454819Y-70101687D02*
X94407200Y-70006449D01*
X94407200Y-70006449D02*
X94359580Y-69958830D01*
X94359580Y-69958830D02*
X94264342Y-69911211D01*
X94264342Y-69911211D02*
X94169104Y-69911211D01*
X94169104Y-69911211D02*
X94073866Y-69958830D01*
X94073866Y-69958830D02*
X94026247Y-70006449D01*
X94026247Y-70006449D02*
X93978628Y-70101687D01*
X93978628Y-70101687D02*
X93931009Y-70292163D01*
X93931009Y-70292163D02*
X93883390Y-70387401D01*
X93883390Y-70387401D02*
X93835771Y-70435020D01*
X93835771Y-70435020D02*
X93740533Y-70482639D01*
X93740533Y-70482639D02*
X93645295Y-70482639D01*
X93645295Y-70482639D02*
X93550057Y-70435020D01*
X93550057Y-70435020D02*
X93502438Y-70387401D01*
X93502438Y-70387401D02*
X93454819Y-70292163D01*
X93454819Y-70292163D02*
X93454819Y-70054068D01*
X93454819Y-70054068D02*
X93502438Y-69911211D01*
X93454819Y-73030258D02*
X94454819Y-72696925D01*
X94454819Y-72696925D02*
X93454819Y-72363592D01*
X137944819Y-140059523D02*
X138659104Y-140059523D01*
X138659104Y-140059523D02*
X138801961Y-140107142D01*
X138801961Y-140107142D02*
X138897200Y-140202380D01*
X138897200Y-140202380D02*
X138944819Y-140345237D01*
X138944819Y-140345237D02*
X138944819Y-140440475D01*
X138944819Y-139059523D02*
X138944819Y-139630951D01*
X138944819Y-139345237D02*
X137944819Y-139345237D01*
X137944819Y-139345237D02*
X138087676Y-139440475D01*
X138087676Y-139440475D02*
X138182914Y-139535713D01*
X138182914Y-139535713D02*
X138230533Y-139630951D01*
X138944819Y-138107142D02*
X138944819Y-138678570D01*
X138944819Y-138392856D02*
X137944819Y-138392856D01*
X137944819Y-138392856D02*
X138087676Y-138488094D01*
X138087676Y-138488094D02*
X138182914Y-138583332D01*
X138182914Y-138583332D02*
X138230533Y-138678570D01*
X139454819Y-135833332D02*
X140454819Y-135499999D01*
X140454819Y-135499999D02*
X139454819Y-135166666D01*
X140407200Y-138285713D02*
X140454819Y-138142856D01*
X140454819Y-138142856D02*
X140454819Y-137904761D01*
X140454819Y-137904761D02*
X140407200Y-137809523D01*
X140407200Y-137809523D02*
X140359580Y-137761904D01*
X140359580Y-137761904D02*
X140264342Y-137714285D01*
X140264342Y-137714285D02*
X140169104Y-137714285D01*
X140169104Y-137714285D02*
X140073866Y-137761904D01*
X140073866Y-137761904D02*
X140026247Y-137809523D01*
X140026247Y-137809523D02*
X139978628Y-137904761D01*
X139978628Y-137904761D02*
X139931009Y-138095237D01*
X139931009Y-138095237D02*
X139883390Y-138190475D01*
X139883390Y-138190475D02*
X139835771Y-138238094D01*
X139835771Y-138238094D02*
X139740533Y-138285713D01*
X139740533Y-138285713D02*
X139645295Y-138285713D01*
X139645295Y-138285713D02*
X139550057Y-138238094D01*
X139550057Y-138238094D02*
X139502438Y-138190475D01*
X139502438Y-138190475D02*
X139454819Y-138095237D01*
X139454819Y-138095237D02*
X139454819Y-137857142D01*
X139454819Y-137857142D02*
X139502438Y-137714285D01*
X140454819Y-140761904D02*
X139454819Y-140761904D01*
X139454819Y-140761904D02*
X139454819Y-140523809D01*
X139454819Y-140523809D02*
X139502438Y-140380952D01*
X139502438Y-140380952D02*
X139597676Y-140285714D01*
X139597676Y-140285714D02*
X139692914Y-140238095D01*
X139692914Y-140238095D02*
X139883390Y-140190476D01*
X139883390Y-140190476D02*
X140026247Y-140190476D01*
X140026247Y-140190476D02*
X140216723Y-140238095D01*
X140216723Y-140238095D02*
X140311961Y-140285714D01*
X140311961Y-140285714D02*
X140407200Y-140380952D01*
X140407200Y-140380952D02*
X140454819Y-140523809D01*
X140454819Y-140523809D02*
X140454819Y-140761904D01*
X94964819Y-111583333D02*
X95679104Y-111583333D01*
X95679104Y-111583333D02*
X95821961Y-111630952D01*
X95821961Y-111630952D02*
X95917200Y-111726190D01*
X95917200Y-111726190D02*
X95964819Y-111869047D01*
X95964819Y-111869047D02*
X95964819Y-111964285D01*
X94964819Y-110630952D02*
X94964819Y-111107142D01*
X94964819Y-111107142D02*
X95441009Y-111154761D01*
X95441009Y-111154761D02*
X95393390Y-111107142D01*
X95393390Y-111107142D02*
X95345771Y-111011904D01*
X95345771Y-111011904D02*
X95345771Y-110773809D01*
X95345771Y-110773809D02*
X95393390Y-110678571D01*
X95393390Y-110678571D02*
X95441009Y-110630952D01*
X95441009Y-110630952D02*
X95536247Y-110583333D01*
X95536247Y-110583333D02*
X95774342Y-110583333D01*
X95774342Y-110583333D02*
X95869580Y-110630952D01*
X95869580Y-110630952D02*
X95917200Y-110678571D01*
X95917200Y-110678571D02*
X95964819Y-110773809D01*
X95964819Y-110773809D02*
X95964819Y-111011904D01*
X95964819Y-111011904D02*
X95917200Y-111107142D01*
X95917200Y-111107142D02*
X95869580Y-111154761D01*
X94454819Y-110261904D02*
X93454819Y-110261904D01*
X93454819Y-110261904D02*
X93454819Y-110023809D01*
X93454819Y-110023809D02*
X93502438Y-109880952D01*
X93502438Y-109880952D02*
X93597676Y-109785714D01*
X93597676Y-109785714D02*
X93692914Y-109738095D01*
X93692914Y-109738095D02*
X93883390Y-109690476D01*
X93883390Y-109690476D02*
X94026247Y-109690476D01*
X94026247Y-109690476D02*
X94216723Y-109738095D01*
X94216723Y-109738095D02*
X94311961Y-109785714D01*
X94311961Y-109785714D02*
X94407200Y-109880952D01*
X94407200Y-109880952D02*
X94454819Y-110023809D01*
X94454819Y-110023809D02*
X94454819Y-110261904D01*
X94407200Y-112785713D02*
X94454819Y-112642856D01*
X94454819Y-112642856D02*
X94454819Y-112404761D01*
X94454819Y-112404761D02*
X94407200Y-112309523D01*
X94407200Y-112309523D02*
X94359580Y-112261904D01*
X94359580Y-112261904D02*
X94264342Y-112214285D01*
X94264342Y-112214285D02*
X94169104Y-112214285D01*
X94169104Y-112214285D02*
X94073866Y-112261904D01*
X94073866Y-112261904D02*
X94026247Y-112309523D01*
X94026247Y-112309523D02*
X93978628Y-112404761D01*
X93978628Y-112404761D02*
X93931009Y-112595237D01*
X93931009Y-112595237D02*
X93883390Y-112690475D01*
X93883390Y-112690475D02*
X93835771Y-112738094D01*
X93835771Y-112738094D02*
X93740533Y-112785713D01*
X93740533Y-112785713D02*
X93645295Y-112785713D01*
X93645295Y-112785713D02*
X93550057Y-112738094D01*
X93550057Y-112738094D02*
X93502438Y-112690475D01*
X93502438Y-112690475D02*
X93454819Y-112595237D01*
X93454819Y-112595237D02*
X93454819Y-112357142D01*
X93454819Y-112357142D02*
X93502438Y-112214285D01*
X93454819Y-115333332D02*
X94454819Y-114999999D01*
X94454819Y-114999999D02*
X93454819Y-114666666D01*
X103883792Y-77954819D02*
X103883792Y-78669104D01*
X103883792Y-78669104D02*
X103836173Y-78811961D01*
X103836173Y-78811961D02*
X103740935Y-78907200D01*
X103740935Y-78907200D02*
X103598078Y-78954819D01*
X103598078Y-78954819D02*
X103502840Y-78954819D01*
X104883792Y-78954819D02*
X104312364Y-78954819D01*
X104598078Y-78954819D02*
X104598078Y-77954819D01*
X104598078Y-77954819D02*
X104502840Y-78097676D01*
X104502840Y-78097676D02*
X104407602Y-78192914D01*
X104407602Y-78192914D02*
X104312364Y-78240533D01*
X105217126Y-77954819D02*
X105836173Y-77954819D01*
X105836173Y-77954819D02*
X105502840Y-78335771D01*
X105502840Y-78335771D02*
X105645697Y-78335771D01*
X105645697Y-78335771D02*
X105740935Y-78383390D01*
X105740935Y-78383390D02*
X105788554Y-78431009D01*
X105788554Y-78431009D02*
X105836173Y-78526247D01*
X105836173Y-78526247D02*
X105836173Y-78764342D01*
X105836173Y-78764342D02*
X105788554Y-78859580D01*
X105788554Y-78859580D02*
X105740935Y-78907200D01*
X105740935Y-78907200D02*
X105645697Y-78954819D01*
X105645697Y-78954819D02*
X105359983Y-78954819D01*
X105359983Y-78954819D02*
X105264745Y-78907200D01*
X105264745Y-78907200D02*
X105217126Y-78859580D01*
X101666667Y-80454819D02*
X102000000Y-81454819D01*
X102000000Y-81454819D02*
X102333333Y-80454819D01*
X102285714Y-99234819D02*
X101714286Y-99234819D01*
X102000000Y-99234819D02*
X102000000Y-98234819D01*
X102000000Y-98234819D02*
X101904762Y-98377676D01*
X101904762Y-98377676D02*
X101809524Y-98472914D01*
X101809524Y-98472914D02*
X101714286Y-98520533D01*
X101714286Y-106807200D02*
X101857143Y-106854819D01*
X101857143Y-106854819D02*
X102095238Y-106854819D01*
X102095238Y-106854819D02*
X102190476Y-106807200D01*
X102190476Y-106807200D02*
X102238095Y-106759580D01*
X102238095Y-106759580D02*
X102285714Y-106664342D01*
X102285714Y-106664342D02*
X102285714Y-106569104D01*
X102285714Y-106569104D02*
X102238095Y-106473866D01*
X102238095Y-106473866D02*
X102190476Y-106426247D01*
X102190476Y-106426247D02*
X102095238Y-106378628D01*
X102095238Y-106378628D02*
X101904762Y-106331009D01*
X101904762Y-106331009D02*
X101809524Y-106283390D01*
X101809524Y-106283390D02*
X101761905Y-106235771D01*
X101761905Y-106235771D02*
X101714286Y-106140533D01*
X101714286Y-106140533D02*
X101714286Y-106045295D01*
X101714286Y-106045295D02*
X101761905Y-105950057D01*
X101761905Y-105950057D02*
X101809524Y-105902438D01*
X101809524Y-105902438D02*
X101904762Y-105854819D01*
X101904762Y-105854819D02*
X102142857Y-105854819D01*
X102142857Y-105854819D02*
X102285714Y-105902438D01*
X101666667Y-108454819D02*
X102285714Y-108454819D01*
X102285714Y-108454819D02*
X101952381Y-108835771D01*
X101952381Y-108835771D02*
X102095238Y-108835771D01*
X102095238Y-108835771D02*
X102190476Y-108883390D01*
X102190476Y-108883390D02*
X102238095Y-108931009D01*
X102238095Y-108931009D02*
X102285714Y-109026247D01*
X102285714Y-109026247D02*
X102285714Y-109264342D01*
X102285714Y-109264342D02*
X102238095Y-109359580D01*
X102238095Y-109359580D02*
X102190476Y-109407200D01*
X102190476Y-109407200D02*
X102095238Y-109454819D01*
X102095238Y-109454819D02*
X101809524Y-109454819D01*
X101809524Y-109454819D02*
X101714286Y-109407200D01*
X101714286Y-109407200D02*
X101666667Y-109359580D01*
X102190476Y-111268152D02*
X102190476Y-111934819D01*
X101952381Y-110887200D02*
X101714286Y-111601485D01*
X101714286Y-111601485D02*
X102333333Y-111601485D01*
X102238095Y-113454819D02*
X101761905Y-113454819D01*
X101761905Y-113454819D02*
X101714286Y-113931009D01*
X101714286Y-113931009D02*
X101761905Y-113883390D01*
X101761905Y-113883390D02*
X101857143Y-113835771D01*
X101857143Y-113835771D02*
X102095238Y-113835771D01*
X102095238Y-113835771D02*
X102190476Y-113883390D01*
X102190476Y-113883390D02*
X102238095Y-113931009D01*
X102238095Y-113931009D02*
X102285714Y-114026247D01*
X102285714Y-114026247D02*
X102285714Y-114264342D01*
X102285714Y-114264342D02*
X102238095Y-114359580D01*
X102238095Y-114359580D02*
X102190476Y-114407200D01*
X102190476Y-114407200D02*
X102095238Y-114454819D01*
X102095238Y-114454819D02*
X101857143Y-114454819D01*
X101857143Y-114454819D02*
X101761905Y-114407200D01*
X101761905Y-114407200D02*
X101714286Y-114359580D01*
X102190476Y-121094819D02*
X102000000Y-121094819D01*
X102000000Y-121094819D02*
X101904762Y-121142438D01*
X101904762Y-121142438D02*
X101857143Y-121190057D01*
X101857143Y-121190057D02*
X101761905Y-121332914D01*
X101761905Y-121332914D02*
X101714286Y-121523390D01*
X101714286Y-121523390D02*
X101714286Y-121904342D01*
X101714286Y-121904342D02*
X101761905Y-121999580D01*
X101761905Y-121999580D02*
X101809524Y-122047200D01*
X101809524Y-122047200D02*
X101904762Y-122094819D01*
X101904762Y-122094819D02*
X102095238Y-122094819D01*
X102095238Y-122094819D02*
X102190476Y-122047200D01*
X102190476Y-122047200D02*
X102238095Y-121999580D01*
X102238095Y-121999580D02*
X102285714Y-121904342D01*
X102285714Y-121904342D02*
X102285714Y-121666247D01*
X102285714Y-121666247D02*
X102238095Y-121571009D01*
X102238095Y-121571009D02*
X102190476Y-121523390D01*
X102190476Y-121523390D02*
X102095238Y-121475771D01*
X102095238Y-121475771D02*
X101904762Y-121475771D01*
X101904762Y-121475771D02*
X101809524Y-121523390D01*
X101809524Y-121523390D02*
X101761905Y-121571009D01*
X101761905Y-121571009D02*
X101714286Y-121666247D01*
X101666667Y-123634819D02*
X102333333Y-123634819D01*
X102333333Y-123634819D02*
X101904762Y-124634819D01*
X94964819Y-97583333D02*
X95679104Y-97583333D01*
X95679104Y-97583333D02*
X95821961Y-97630952D01*
X95821961Y-97630952D02*
X95917200Y-97726190D01*
X95917200Y-97726190D02*
X95964819Y-97869047D01*
X95964819Y-97869047D02*
X95964819Y-97964285D01*
X95298152Y-96678571D02*
X95964819Y-96678571D01*
X94917200Y-96916666D02*
X95631485Y-97154761D01*
X95631485Y-97154761D02*
X95631485Y-96535714D01*
X94454819Y-96261904D02*
X93454819Y-96261904D01*
X93454819Y-96261904D02*
X93454819Y-96023809D01*
X93454819Y-96023809D02*
X93502438Y-95880952D01*
X93502438Y-95880952D02*
X93597676Y-95785714D01*
X93597676Y-95785714D02*
X93692914Y-95738095D01*
X93692914Y-95738095D02*
X93883390Y-95690476D01*
X93883390Y-95690476D02*
X94026247Y-95690476D01*
X94026247Y-95690476D02*
X94216723Y-95738095D01*
X94216723Y-95738095D02*
X94311961Y-95785714D01*
X94311961Y-95785714D02*
X94407200Y-95880952D01*
X94407200Y-95880952D02*
X94454819Y-96023809D01*
X94454819Y-96023809D02*
X94454819Y-96261904D01*
X94407200Y-98785713D02*
X94454819Y-98642856D01*
X94454819Y-98642856D02*
X94454819Y-98404761D01*
X94454819Y-98404761D02*
X94407200Y-98309523D01*
X94407200Y-98309523D02*
X94359580Y-98261904D01*
X94359580Y-98261904D02*
X94264342Y-98214285D01*
X94264342Y-98214285D02*
X94169104Y-98214285D01*
X94169104Y-98214285D02*
X94073866Y-98261904D01*
X94073866Y-98261904D02*
X94026247Y-98309523D01*
X94026247Y-98309523D02*
X93978628Y-98404761D01*
X93978628Y-98404761D02*
X93931009Y-98595237D01*
X93931009Y-98595237D02*
X93883390Y-98690475D01*
X93883390Y-98690475D02*
X93835771Y-98738094D01*
X93835771Y-98738094D02*
X93740533Y-98785713D01*
X93740533Y-98785713D02*
X93645295Y-98785713D01*
X93645295Y-98785713D02*
X93550057Y-98738094D01*
X93550057Y-98738094D02*
X93502438Y-98690475D01*
X93502438Y-98690475D02*
X93454819Y-98595237D01*
X93454819Y-98595237D02*
X93454819Y-98357142D01*
X93454819Y-98357142D02*
X93502438Y-98214285D01*
X93454819Y-101333332D02*
X94454819Y-100999999D01*
X94454819Y-100999999D02*
X93454819Y-100666666D01*
X137944819Y-111633333D02*
X138659104Y-111633333D01*
X138659104Y-111633333D02*
X138801961Y-111680952D01*
X138801961Y-111680952D02*
X138897200Y-111776190D01*
X138897200Y-111776190D02*
X138944819Y-111919047D01*
X138944819Y-111919047D02*
X138944819Y-112014285D01*
X138373390Y-111014285D02*
X138325771Y-111109523D01*
X138325771Y-111109523D02*
X138278152Y-111157142D01*
X138278152Y-111157142D02*
X138182914Y-111204761D01*
X138182914Y-111204761D02*
X138135295Y-111204761D01*
X138135295Y-111204761D02*
X138040057Y-111157142D01*
X138040057Y-111157142D02*
X137992438Y-111109523D01*
X137992438Y-111109523D02*
X137944819Y-111014285D01*
X137944819Y-111014285D02*
X137944819Y-110823809D01*
X137944819Y-110823809D02*
X137992438Y-110728571D01*
X137992438Y-110728571D02*
X138040057Y-110680952D01*
X138040057Y-110680952D02*
X138135295Y-110633333D01*
X138135295Y-110633333D02*
X138182914Y-110633333D01*
X138182914Y-110633333D02*
X138278152Y-110680952D01*
X138278152Y-110680952D02*
X138325771Y-110728571D01*
X138325771Y-110728571D02*
X138373390Y-110823809D01*
X138373390Y-110823809D02*
X138373390Y-111014285D01*
X138373390Y-111014285D02*
X138421009Y-111109523D01*
X138421009Y-111109523D02*
X138468628Y-111157142D01*
X138468628Y-111157142D02*
X138563866Y-111204761D01*
X138563866Y-111204761D02*
X138754342Y-111204761D01*
X138754342Y-111204761D02*
X138849580Y-111157142D01*
X138849580Y-111157142D02*
X138897200Y-111109523D01*
X138897200Y-111109523D02*
X138944819Y-111014285D01*
X138944819Y-111014285D02*
X138944819Y-110823809D01*
X138944819Y-110823809D02*
X138897200Y-110728571D01*
X138897200Y-110728571D02*
X138849580Y-110680952D01*
X138849580Y-110680952D02*
X138754342Y-110633333D01*
X138754342Y-110633333D02*
X138563866Y-110633333D01*
X138563866Y-110633333D02*
X138468628Y-110680952D01*
X138468628Y-110680952D02*
X138421009Y-110728571D01*
X138421009Y-110728571D02*
X138373390Y-110823809D01*
X139454819Y-107883332D02*
X140454819Y-107549999D01*
X140454819Y-107549999D02*
X139454819Y-107216666D01*
X140407200Y-110335713D02*
X140454819Y-110192856D01*
X140454819Y-110192856D02*
X140454819Y-109954761D01*
X140454819Y-109954761D02*
X140407200Y-109859523D01*
X140407200Y-109859523D02*
X140359580Y-109811904D01*
X140359580Y-109811904D02*
X140264342Y-109764285D01*
X140264342Y-109764285D02*
X140169104Y-109764285D01*
X140169104Y-109764285D02*
X140073866Y-109811904D01*
X140073866Y-109811904D02*
X140026247Y-109859523D01*
X140026247Y-109859523D02*
X139978628Y-109954761D01*
X139978628Y-109954761D02*
X139931009Y-110145237D01*
X139931009Y-110145237D02*
X139883390Y-110240475D01*
X139883390Y-110240475D02*
X139835771Y-110288094D01*
X139835771Y-110288094D02*
X139740533Y-110335713D01*
X139740533Y-110335713D02*
X139645295Y-110335713D01*
X139645295Y-110335713D02*
X139550057Y-110288094D01*
X139550057Y-110288094D02*
X139502438Y-110240475D01*
X139502438Y-110240475D02*
X139454819Y-110145237D01*
X139454819Y-110145237D02*
X139454819Y-109907142D01*
X139454819Y-109907142D02*
X139502438Y-109764285D01*
X140454819Y-112811904D02*
X139454819Y-112811904D01*
X139454819Y-112811904D02*
X139454819Y-112573809D01*
X139454819Y-112573809D02*
X139502438Y-112430952D01*
X139502438Y-112430952D02*
X139597676Y-112335714D01*
X139597676Y-112335714D02*
X139692914Y-112288095D01*
X139692914Y-112288095D02*
X139883390Y-112240476D01*
X139883390Y-112240476D02*
X140026247Y-112240476D01*
X140026247Y-112240476D02*
X140216723Y-112288095D01*
X140216723Y-112288095D02*
X140311961Y-112335714D01*
X140311961Y-112335714D02*
X140407200Y-112430952D01*
X140407200Y-112430952D02*
X140454819Y-112573809D01*
X140454819Y-112573809D02*
X140454819Y-112811904D01*
X137944819Y-97583333D02*
X138659104Y-97583333D01*
X138659104Y-97583333D02*
X138801961Y-97630952D01*
X138801961Y-97630952D02*
X138897200Y-97726190D01*
X138897200Y-97726190D02*
X138944819Y-97869047D01*
X138944819Y-97869047D02*
X138944819Y-97964285D01*
X138944819Y-97059523D02*
X138944819Y-96869047D01*
X138944819Y-96869047D02*
X138897200Y-96773809D01*
X138897200Y-96773809D02*
X138849580Y-96726190D01*
X138849580Y-96726190D02*
X138706723Y-96630952D01*
X138706723Y-96630952D02*
X138516247Y-96583333D01*
X138516247Y-96583333D02*
X138135295Y-96583333D01*
X138135295Y-96583333D02*
X138040057Y-96630952D01*
X138040057Y-96630952D02*
X137992438Y-96678571D01*
X137992438Y-96678571D02*
X137944819Y-96773809D01*
X137944819Y-96773809D02*
X137944819Y-96964285D01*
X137944819Y-96964285D02*
X137992438Y-97059523D01*
X137992438Y-97059523D02*
X138040057Y-97107142D01*
X138040057Y-97107142D02*
X138135295Y-97154761D01*
X138135295Y-97154761D02*
X138373390Y-97154761D01*
X138373390Y-97154761D02*
X138468628Y-97107142D01*
X138468628Y-97107142D02*
X138516247Y-97059523D01*
X138516247Y-97059523D02*
X138563866Y-96964285D01*
X138563866Y-96964285D02*
X138563866Y-96773809D01*
X138563866Y-96773809D02*
X138516247Y-96678571D01*
X138516247Y-96678571D02*
X138468628Y-96630952D01*
X138468628Y-96630952D02*
X138373390Y-96583333D01*
X139454819Y-93833332D02*
X140454819Y-93499999D01*
X140454819Y-93499999D02*
X139454819Y-93166666D01*
X140407200Y-96285713D02*
X140454819Y-96142856D01*
X140454819Y-96142856D02*
X140454819Y-95904761D01*
X140454819Y-95904761D02*
X140407200Y-95809523D01*
X140407200Y-95809523D02*
X140359580Y-95761904D01*
X140359580Y-95761904D02*
X140264342Y-95714285D01*
X140264342Y-95714285D02*
X140169104Y-95714285D01*
X140169104Y-95714285D02*
X140073866Y-95761904D01*
X140073866Y-95761904D02*
X140026247Y-95809523D01*
X140026247Y-95809523D02*
X139978628Y-95904761D01*
X139978628Y-95904761D02*
X139931009Y-96095237D01*
X139931009Y-96095237D02*
X139883390Y-96190475D01*
X139883390Y-96190475D02*
X139835771Y-96238094D01*
X139835771Y-96238094D02*
X139740533Y-96285713D01*
X139740533Y-96285713D02*
X139645295Y-96285713D01*
X139645295Y-96285713D02*
X139550057Y-96238094D01*
X139550057Y-96238094D02*
X139502438Y-96190475D01*
X139502438Y-96190475D02*
X139454819Y-96095237D01*
X139454819Y-96095237D02*
X139454819Y-95857142D01*
X139454819Y-95857142D02*
X139502438Y-95714285D01*
X140454819Y-98761904D02*
X139454819Y-98761904D01*
X139454819Y-98761904D02*
X139454819Y-98523809D01*
X139454819Y-98523809D02*
X139502438Y-98380952D01*
X139502438Y-98380952D02*
X139597676Y-98285714D01*
X139597676Y-98285714D02*
X139692914Y-98238095D01*
X139692914Y-98238095D02*
X139883390Y-98190476D01*
X139883390Y-98190476D02*
X140026247Y-98190476D01*
X140026247Y-98190476D02*
X140216723Y-98238095D01*
X140216723Y-98238095D02*
X140311961Y-98285714D01*
X140311961Y-98285714D02*
X140407200Y-98380952D01*
X140407200Y-98380952D02*
X140454819Y-98523809D01*
X140454819Y-98523809D02*
X140454819Y-98761904D01*
%TO.C,J7*%
D11*
X82690000Y-132940000D02*
X94410000Y-132940000D01*
X82690000Y-139250000D02*
X82690000Y-132940000D01*
X82690000Y-139250000D02*
X82690000Y-145560000D01*
X82690000Y-145560000D02*
X94410000Y-145560000D01*
X89910000Y-134360000D02*
X89910000Y-139250000D01*
X89910000Y-144140000D02*
X89910000Y-139250000D01*
X93500000Y-135500000D02*
X94100000Y-135200000D01*
X94100000Y-135200000D02*
X94100000Y-135800000D01*
X94100000Y-135800000D02*
X93500000Y-135500000D01*
X94410000Y-132940000D02*
X94410000Y-134360000D01*
X94410000Y-134360000D02*
X89910000Y-134360000D01*
X94410000Y-144140000D02*
X89910000Y-144140000D01*
X94410000Y-145560000D02*
X94410000Y-144140000D01*
X83300000Y-135250000D02*
X88800000Y-135250000D01*
X88800000Y-135750000D01*
X83300000Y-135750000D01*
X83300000Y-135250000D01*
X83300000Y-137750000D02*
X88800000Y-137750000D01*
X88800000Y-138250000D01*
X83300000Y-138250000D01*
X83300000Y-137750000D01*
X83300000Y-140250000D02*
X88800000Y-140250000D01*
X88800000Y-140750000D01*
X83300000Y-140750000D01*
X83300000Y-140250000D01*
X83300000Y-142750000D02*
X88800000Y-142750000D01*
X88800000Y-143250000D01*
X83300000Y-143250000D01*
X83300000Y-142750000D01*
%TO.C,J10*%
X139590000Y-76890000D02*
X139590000Y-78310000D01*
X139590000Y-78310000D02*
X144090000Y-78310000D01*
X139590000Y-88090000D02*
X144090000Y-88090000D01*
X139590000Y-89510000D02*
X139590000Y-88090000D01*
X139900000Y-86650000D02*
X140500000Y-86950000D01*
X139900000Y-87250000D02*
X139900000Y-86650000D01*
X140500000Y-86950000D02*
X139900000Y-87250000D01*
X144090000Y-78310000D02*
X144090000Y-83200000D01*
X144090000Y-88090000D02*
X144090000Y-83200000D01*
X151310000Y-76890000D02*
X139590000Y-76890000D01*
X151310000Y-83200000D02*
X151310000Y-76890000D01*
X151310000Y-83200000D02*
X151310000Y-89510000D01*
X151310000Y-89510000D02*
X139590000Y-89510000D01*
X145200000Y-79200000D02*
X150700000Y-79200000D01*
X150700000Y-79700000D01*
X145200000Y-79700000D01*
X145200000Y-79200000D01*
X145200000Y-81700000D02*
X150700000Y-81700000D01*
X150700000Y-82200000D01*
X145200000Y-82200000D01*
X145200000Y-81700000D01*
X145200000Y-84200000D02*
X150700000Y-84200000D01*
X150700000Y-84700000D01*
X145200000Y-84700000D01*
X145200000Y-84200000D01*
X145200000Y-86700000D02*
X150700000Y-86700000D01*
X150700000Y-87200000D01*
X145200000Y-87200000D01*
X145200000Y-86700000D01*
%TO.C,J2*%
X139590000Y-62940000D02*
X139590000Y-64360000D01*
X139590000Y-64360000D02*
X144090000Y-64360000D01*
X139590000Y-74140000D02*
X144090000Y-74140000D01*
X139590000Y-75560000D02*
X139590000Y-74140000D01*
X139900000Y-72700000D02*
X140500000Y-73000000D01*
X139900000Y-73300000D02*
X139900000Y-72700000D01*
X140500000Y-73000000D02*
X139900000Y-73300000D01*
X144090000Y-64360000D02*
X144090000Y-69250000D01*
X144090000Y-74140000D02*
X144090000Y-69250000D01*
X151310000Y-62940000D02*
X139590000Y-62940000D01*
X151310000Y-69250000D02*
X151310000Y-62940000D01*
X151310000Y-69250000D02*
X151310000Y-75560000D01*
X151310000Y-75560000D02*
X139590000Y-75560000D01*
X145200000Y-65250000D02*
X150700000Y-65250000D01*
X150700000Y-65750000D01*
X145200000Y-65750000D01*
X145200000Y-65250000D01*
X145200000Y-67750000D02*
X150700000Y-67750000D01*
X150700000Y-68250000D01*
X145200000Y-68250000D01*
X145200000Y-67750000D01*
X145200000Y-70250000D02*
X150700000Y-70250000D01*
X150700000Y-70750000D01*
X145200000Y-70750000D01*
X145200000Y-70250000D01*
X145200000Y-72750000D02*
X150700000Y-72750000D01*
X150700000Y-73250000D01*
X145200000Y-73250000D01*
X145200000Y-72750000D01*
%TO.C,J12*%
X139590000Y-118940000D02*
X139590000Y-120360000D01*
X139590000Y-120360000D02*
X144090000Y-120360000D01*
X139590000Y-130140000D02*
X144090000Y-130140000D01*
X139590000Y-131560000D02*
X139590000Y-130140000D01*
X139900000Y-128700000D02*
X140500000Y-129000000D01*
X139900000Y-129300000D02*
X139900000Y-128700000D01*
X140500000Y-129000000D02*
X139900000Y-129300000D01*
X144090000Y-120360000D02*
X144090000Y-125250000D01*
X144090000Y-130140000D02*
X144090000Y-125250000D01*
X151310000Y-118940000D02*
X139590000Y-118940000D01*
X151310000Y-125250000D02*
X151310000Y-118940000D01*
X151310000Y-125250000D02*
X151310000Y-131560000D01*
X151310000Y-131560000D02*
X139590000Y-131560000D01*
X145200000Y-121250000D02*
X150700000Y-121250000D01*
X150700000Y-121750000D01*
X145200000Y-121750000D01*
X145200000Y-121250000D01*
X145200000Y-123750000D02*
X150700000Y-123750000D01*
X150700000Y-124250000D01*
X145200000Y-124250000D01*
X145200000Y-123750000D01*
X145200000Y-126250000D02*
X150700000Y-126250000D01*
X150700000Y-126750000D01*
X145200000Y-126750000D01*
X145200000Y-126250000D01*
X145200000Y-128750000D02*
X150700000Y-128750000D01*
X150700000Y-129250000D01*
X145200000Y-129250000D01*
X145200000Y-128750000D01*
%TO.C,J6*%
X82690000Y-118940000D02*
X94410000Y-118940000D01*
X82690000Y-125250000D02*
X82690000Y-118940000D01*
X82690000Y-125250000D02*
X82690000Y-131560000D01*
X82690000Y-131560000D02*
X94410000Y-131560000D01*
X89910000Y-120360000D02*
X89910000Y-125250000D01*
X89910000Y-130140000D02*
X89910000Y-125250000D01*
X93500000Y-121500000D02*
X94100000Y-121200000D01*
X94100000Y-121200000D02*
X94100000Y-121800000D01*
X94100000Y-121800000D02*
X93500000Y-121500000D01*
X94410000Y-118940000D02*
X94410000Y-120360000D01*
X94410000Y-120360000D02*
X89910000Y-120360000D01*
X94410000Y-130140000D02*
X89910000Y-130140000D01*
X94410000Y-131560000D02*
X94410000Y-130140000D01*
X83300000Y-121250000D02*
X88800000Y-121250000D01*
X88800000Y-121750000D01*
X83300000Y-121750000D01*
X83300000Y-121250000D01*
X83300000Y-123750000D02*
X88800000Y-123750000D01*
X88800000Y-124250000D01*
X83300000Y-124250000D01*
X83300000Y-123750000D01*
X83300000Y-126250000D02*
X88800000Y-126250000D01*
X88800000Y-126750000D01*
X83300000Y-126750000D01*
X83300000Y-126250000D01*
X83300000Y-128750000D02*
X88800000Y-128750000D01*
X88800000Y-129250000D01*
X83300000Y-129250000D01*
X83300000Y-128750000D01*
%TO.C,J14*%
X128763316Y-82270000D02*
X128763316Y-125510000D01*
X128763316Y-82270000D02*
X131423316Y-82270000D01*
X128763316Y-125510000D02*
X131423316Y-125510000D01*
X130093316Y-79670000D02*
X131423316Y-79670000D01*
X131423316Y-79670000D02*
X131423316Y-81000000D01*
X131423316Y-82270000D02*
X131423316Y-125510000D01*
%TO.C,J3*%
X82690000Y-76686926D02*
X94410000Y-76686926D01*
X82690000Y-82996926D02*
X82690000Y-76686926D01*
X82690000Y-82996926D02*
X82690000Y-89306926D01*
X82690000Y-89306926D02*
X94410000Y-89306926D01*
X89910000Y-78106926D02*
X89910000Y-82996926D01*
X89910000Y-87886926D02*
X89910000Y-82996926D01*
X93500000Y-79246926D02*
X94100000Y-78946926D01*
X94100000Y-78946926D02*
X94100000Y-79546926D01*
X94100000Y-79546926D02*
X93500000Y-79246926D01*
X94410000Y-76686926D02*
X94410000Y-78106926D01*
X94410000Y-78106926D02*
X89910000Y-78106926D01*
X94410000Y-87886926D02*
X89910000Y-87886926D01*
X94410000Y-89306926D02*
X94410000Y-87886926D01*
X83300000Y-78996926D02*
X88800000Y-78996926D01*
X88800000Y-79496926D01*
X83300000Y-79496926D01*
X83300000Y-78996926D01*
X83300000Y-81496926D02*
X88800000Y-81496926D01*
X88800000Y-81996926D01*
X83300000Y-81996926D01*
X83300000Y-81496926D01*
X83300000Y-83996926D02*
X88800000Y-83996926D01*
X88800000Y-84496926D01*
X83300000Y-84496926D01*
X83300000Y-83996926D01*
X83300000Y-86496926D02*
X88800000Y-86496926D01*
X88800000Y-86996926D01*
X83300000Y-86996926D01*
X83300000Y-86496926D01*
%TO.C,J1*%
X82690000Y-62636926D02*
X94410000Y-62636926D01*
X82690000Y-68946926D02*
X82690000Y-62636926D01*
X82690000Y-68946926D02*
X82690000Y-75256926D01*
X82690000Y-75256926D02*
X94410000Y-75256926D01*
X89910000Y-64056926D02*
X89910000Y-68946926D01*
X89910000Y-73836926D02*
X89910000Y-68946926D01*
X93500000Y-65196926D02*
X94100000Y-64896926D01*
X94100000Y-64896926D02*
X94100000Y-65496926D01*
X94100000Y-65496926D02*
X93500000Y-65196926D01*
X94410000Y-62636926D02*
X94410000Y-64056926D01*
X94410000Y-64056926D02*
X89910000Y-64056926D01*
X94410000Y-73836926D02*
X89910000Y-73836926D01*
X94410000Y-75256926D02*
X94410000Y-73836926D01*
X83300000Y-64946926D02*
X88800000Y-64946926D01*
X88800000Y-65446926D01*
X83300000Y-65446926D01*
X83300000Y-64946926D01*
X83300000Y-67446926D02*
X88800000Y-67446926D01*
X88800000Y-67946926D01*
X83300000Y-67946926D01*
X83300000Y-67446926D01*
X83300000Y-69946926D02*
X88800000Y-69946926D01*
X88800000Y-70446926D01*
X83300000Y-70446926D01*
X83300000Y-69946926D01*
X83300000Y-72446926D02*
X88800000Y-72446926D01*
X88800000Y-72946926D01*
X83300000Y-72946926D01*
X83300000Y-72446926D01*
%TO.C,J11*%
X139590000Y-132940000D02*
X139590000Y-134360000D01*
X139590000Y-134360000D02*
X144090000Y-134360000D01*
X139590000Y-144140000D02*
X144090000Y-144140000D01*
X139590000Y-145560000D02*
X139590000Y-144140000D01*
X139900000Y-142700000D02*
X140500000Y-143000000D01*
X139900000Y-143300000D02*
X139900000Y-142700000D01*
X140500000Y-143000000D02*
X139900000Y-143300000D01*
X144090000Y-134360000D02*
X144090000Y-139250000D01*
X144090000Y-144140000D02*
X144090000Y-139250000D01*
X151310000Y-132940000D02*
X139590000Y-132940000D01*
X151310000Y-139250000D02*
X151310000Y-132940000D01*
X151310000Y-139250000D02*
X151310000Y-145560000D01*
X151310000Y-145560000D02*
X139590000Y-145560000D01*
X145200000Y-135250000D02*
X150700000Y-135250000D01*
X150700000Y-135750000D01*
X145200000Y-135750000D01*
X145200000Y-135250000D01*
X145200000Y-137750000D02*
X150700000Y-137750000D01*
X150700000Y-138250000D01*
X145200000Y-138250000D01*
X145200000Y-137750000D01*
X145200000Y-140250000D02*
X150700000Y-140250000D01*
X150700000Y-140750000D01*
X145200000Y-140750000D01*
X145200000Y-140250000D01*
X145200000Y-142750000D02*
X150700000Y-142750000D01*
X150700000Y-143250000D01*
X145200000Y-143250000D01*
X145200000Y-142750000D01*
%TO.C,J5*%
X82690000Y-104940000D02*
X94410000Y-104940000D01*
X82690000Y-111250000D02*
X82690000Y-104940000D01*
X82690000Y-111250000D02*
X82690000Y-117560000D01*
X82690000Y-117560000D02*
X94410000Y-117560000D01*
X89910000Y-106360000D02*
X89910000Y-111250000D01*
X89910000Y-116140000D02*
X89910000Y-111250000D01*
X93500000Y-107500000D02*
X94100000Y-107200000D01*
X94100000Y-107200000D02*
X94100000Y-107800000D01*
X94100000Y-107800000D02*
X93500000Y-107500000D01*
X94410000Y-104940000D02*
X94410000Y-106360000D01*
X94410000Y-106360000D02*
X89910000Y-106360000D01*
X94410000Y-116140000D02*
X89910000Y-116140000D01*
X94410000Y-117560000D02*
X94410000Y-116140000D01*
X83300000Y-107250000D02*
X88800000Y-107250000D01*
X88800000Y-107750000D01*
X83300000Y-107750000D01*
X83300000Y-107250000D01*
X83300000Y-109750000D02*
X88800000Y-109750000D01*
X88800000Y-110250000D01*
X83300000Y-110250000D01*
X83300000Y-109750000D01*
X83300000Y-112250000D02*
X88800000Y-112250000D01*
X88800000Y-112750000D01*
X83300000Y-112750000D01*
X83300000Y-112250000D01*
X83300000Y-114750000D02*
X88800000Y-114750000D01*
X88800000Y-115250000D01*
X83300000Y-115250000D01*
X83300000Y-114750000D01*
%TO.C,J13*%
X103363316Y-82270000D02*
X103363316Y-125510000D01*
X103363316Y-82270000D02*
X106023316Y-82270000D01*
X103363316Y-125510000D02*
X106023316Y-125510000D01*
X104693316Y-79670000D02*
X106023316Y-79670000D01*
X106023316Y-79670000D02*
X106023316Y-81000000D01*
X106023316Y-82270000D02*
X106023316Y-125510000D01*
%TO.C,J4*%
X82690000Y-90940000D02*
X94410000Y-90940000D01*
X82690000Y-97250000D02*
X82690000Y-90940000D01*
X82690000Y-97250000D02*
X82690000Y-103560000D01*
X82690000Y-103560000D02*
X94410000Y-103560000D01*
X89910000Y-92360000D02*
X89910000Y-97250000D01*
X89910000Y-102140000D02*
X89910000Y-97250000D01*
X93500000Y-93500000D02*
X94100000Y-93200000D01*
X94100000Y-93200000D02*
X94100000Y-93800000D01*
X94100000Y-93800000D02*
X93500000Y-93500000D01*
X94410000Y-90940000D02*
X94410000Y-92360000D01*
X94410000Y-92360000D02*
X89910000Y-92360000D01*
X94410000Y-102140000D02*
X89910000Y-102140000D01*
X94410000Y-103560000D02*
X94410000Y-102140000D01*
X83300000Y-93250000D02*
X88800000Y-93250000D01*
X88800000Y-93750000D01*
X83300000Y-93750000D01*
X83300000Y-93250000D01*
X83300000Y-95750000D02*
X88800000Y-95750000D01*
X88800000Y-96250000D01*
X83300000Y-96250000D01*
X83300000Y-95750000D01*
X83300000Y-98250000D02*
X88800000Y-98250000D01*
X88800000Y-98750000D01*
X83300000Y-98750000D01*
X83300000Y-98250000D01*
X83300000Y-100750000D02*
X88800000Y-100750000D01*
X88800000Y-101250000D01*
X83300000Y-101250000D01*
X83300000Y-100750000D01*
%TO.C,J8*%
X139590000Y-104990000D02*
X139590000Y-106410000D01*
X139590000Y-106410000D02*
X144090000Y-106410000D01*
X139590000Y-116190000D02*
X144090000Y-116190000D01*
X139590000Y-117610000D02*
X139590000Y-116190000D01*
X139900000Y-114750000D02*
X140500000Y-115050000D01*
X139900000Y-115350000D02*
X139900000Y-114750000D01*
X140500000Y-115050000D02*
X139900000Y-115350000D01*
X144090000Y-106410000D02*
X144090000Y-111300000D01*
X144090000Y-116190000D02*
X144090000Y-111300000D01*
X151310000Y-104990000D02*
X139590000Y-104990000D01*
X151310000Y-111300000D02*
X151310000Y-104990000D01*
X151310000Y-111300000D02*
X151310000Y-117610000D01*
X151310000Y-117610000D02*
X139590000Y-117610000D01*
X145200000Y-107300000D02*
X150700000Y-107300000D01*
X150700000Y-107800000D01*
X145200000Y-107800000D01*
X145200000Y-107300000D01*
X145200000Y-109800000D02*
X150700000Y-109800000D01*
X150700000Y-110300000D01*
X145200000Y-110300000D01*
X145200000Y-109800000D01*
X145200000Y-112300000D02*
X150700000Y-112300000D01*
X150700000Y-112800000D01*
X145200000Y-112800000D01*
X145200000Y-112300000D01*
X145200000Y-114800000D02*
X150700000Y-114800000D01*
X150700000Y-115300000D01*
X145200000Y-115300000D01*
X145200000Y-114800000D01*
%TO.C,J9*%
X139590000Y-90940000D02*
X139590000Y-92360000D01*
X139590000Y-92360000D02*
X144090000Y-92360000D01*
X139590000Y-102140000D02*
X144090000Y-102140000D01*
X139590000Y-103560000D02*
X139590000Y-102140000D01*
X139900000Y-100700000D02*
X140500000Y-101000000D01*
X139900000Y-101300000D02*
X139900000Y-100700000D01*
X140500000Y-101000000D02*
X139900000Y-101300000D01*
X144090000Y-92360000D02*
X144090000Y-97250000D01*
X144090000Y-102140000D02*
X144090000Y-97250000D01*
X151310000Y-90940000D02*
X139590000Y-90940000D01*
X151310000Y-97250000D02*
X151310000Y-90940000D01*
X151310000Y-97250000D02*
X151310000Y-103560000D01*
X151310000Y-103560000D02*
X139590000Y-103560000D01*
X145200000Y-93250000D02*
X150700000Y-93250000D01*
X150700000Y-93750000D01*
X145200000Y-93750000D01*
X145200000Y-93250000D01*
X145200000Y-95750000D02*
X150700000Y-95750000D01*
X150700000Y-96250000D01*
X145200000Y-96250000D01*
X145200000Y-95750000D01*
X145200000Y-98250000D02*
X150700000Y-98250000D01*
X150700000Y-98750000D01*
X145200000Y-98750000D01*
X145200000Y-98250000D01*
X145200000Y-100750000D02*
X150700000Y-100750000D01*
X150700000Y-101250000D01*
X145200000Y-101250000D01*
X145200000Y-100750000D01*
%TD*%
M02*
