%TF.GenerationSoftware,KiCad,Pcbnew,10.0.3*%
%TF.CreationDate,2026-06-22T15:49:19+08:00*%
%TF.ProjectId,PCB,5043422e-6b69-4636-9164-5f7063625858,rev?*%
%TF.SameCoordinates,Original*%
%TF.FileFunction,Copper,L1,Top*%
%TF.FilePolarity,Positive*%
%FSLAX46Y46*%
G04 Gerber Fmt 4.6, Leading zero omitted, Abs format (unit mm)*
G04 Created by KiCad (PCBNEW 10.0.3) date 2026-06-22 15:49:19*
%MOMM*%
%LPD*%
G01*
G04 APERTURE LIST*
G04 Aperture macros list*
%AMRoundRect*
0 Rectangle with rounded corners*
0 $1 Rounding radius*
0 $2 $3 $4 $5 $6 $7 $8 $9 X,Y pos of 4 corners*
0 Add a 4 corners polygon primitive as box body*
4,1,4,$2,$3,$4,$5,$6,$7,$8,$9,$2,$3,0*
0 Add four circle primitives for the rounded corners*
1,1,$1+$1,$2,$3*
1,1,$1+$1,$4,$5*
1,1,$1+$1,$6,$7*
1,1,$1+$1,$8,$9*
0 Add four rect primitives between the rounded corners*
20,1,$1+$1,$2,$3,$4,$5,0*
20,1,$1+$1,$4,$5,$6,$7,0*
20,1,$1+$1,$6,$7,$8,$9,0*
20,1,$1+$1,$8,$9,$2,$3,0*%
G04 Aperture macros list end*
%TA.AperFunction,ComponentPad*%
%ADD10RoundRect,0.250000X-0.725000X0.600000X-0.725000X-0.600000X0.725000X-0.600000X0.725000X0.600000X0*%
%TD*%
%TA.AperFunction,ComponentPad*%
%ADD11O,1.950000X1.700000*%
%TD*%
%TA.AperFunction,ComponentPad*%
%ADD12RoundRect,0.250000X0.725000X-0.600000X0.725000X0.600000X-0.725000X0.600000X-0.725000X-0.600000X0*%
%TD*%
%TA.AperFunction,ComponentPad*%
%ADD13R,1.700000X1.700000*%
%TD*%
%TA.AperFunction,ComponentPad*%
%ADD14C,1.700000*%
%TD*%
%TA.AperFunction,Conductor*%
%ADD15C,0.200000*%
%TD*%
G04 APERTURE END LIST*
D10*
%TO.P,J7,1,Pin_1_1*%
%TO.N,GND*%
X92000000Y-135500000D03*
D11*
%TO.P,J7,2,Pin_2_2*%
%TO.N,/DT7*%
X92000000Y-138000000D03*
%TO.P,J7,3,Pin_3_3*%
%TO.N,/SCK*%
X92000000Y-140500000D03*
%TO.P,J7,4,Pin_4_4*%
%TO.N,+3V3*%
X92000000Y-143000000D03*
%TD*%
D12*
%TO.P,J10,1,Pin_1_1*%
%TO.N,GND*%
X142000000Y-86950000D03*
D11*
%TO.P,J10,2,Pin_2_2*%
%TO.N,/DT10*%
X142000000Y-84450000D03*
%TO.P,J10,3,Pin_3_3*%
%TO.N,/SCK*%
X142000000Y-81950000D03*
%TO.P,J10,4,Pin_4_4*%
%TO.N,+3V3*%
X142000000Y-79450000D03*
%TD*%
D12*
%TO.P,J2,1,Pin_1_1*%
%TO.N,GND*%
X142000000Y-73000000D03*
D11*
%TO.P,J2,2,Pin_2_2*%
%TO.N,/DT2*%
X142000000Y-70500000D03*
%TO.P,J2,3,Pin_3_3*%
%TO.N,/SCK*%
X142000000Y-68000000D03*
%TO.P,J2,4,Pin_4_4*%
%TO.N,+3V3*%
X142000000Y-65500000D03*
%TD*%
D12*
%TO.P,J12,1,Pin_1_1*%
%TO.N,GND*%
X142000000Y-129000000D03*
D11*
%TO.P,J12,2,Pin_2_2*%
%TO.N,/DT12*%
X142000000Y-126500000D03*
%TO.P,J12,3,Pin_3_3*%
%TO.N,/SCK*%
X142000000Y-124000000D03*
%TO.P,J12,4,Pin_4_4*%
%TO.N,+3V3*%
X142000000Y-121500000D03*
%TD*%
D10*
%TO.P,J6,1,Pin_1_1*%
%TO.N,GND*%
X92000000Y-121500000D03*
D11*
%TO.P,J6,2,Pin_2_2*%
%TO.N,/DT6*%
X92000000Y-124000000D03*
%TO.P,J6,3,Pin_3_3*%
%TO.N,/SCK*%
X92000000Y-126500000D03*
%TO.P,J6,4,Pin_4_4*%
%TO.N,+3V3*%
X92000000Y-129000000D03*
%TD*%
D13*
%TO.P,J14,1,Pin_1_1*%
%TO.N,unconnected-(J14-Pin_1-Pad1)*%
X130093316Y-81000000D03*
D14*
%TO.P,J14,2,Pin_2_2*%
%TO.N,GND*%
X130093316Y-83540000D03*
%TO.P,J14,3,Pin_3_3*%
%TO.N,unconnected-(J14-Pin_3-Pad3)*%
X130093316Y-86080000D03*
%TO.P,J14,4,Pin_4_4*%
%TO.N,unconnected-(J14-Pin_4-Pad4)*%
X130093316Y-88620000D03*
%TO.P,J14,5,Pin_5_5*%
%TO.N,unconnected-(J14-Pin_5-Pad5)*%
X130093316Y-91160000D03*
%TO.P,J14,6,Pin_6_6*%
%TO.N,/DT2*%
X130093316Y-93700000D03*
%TO.P,J14,7,Pin_7_7*%
%TO.N,unconnected-(J14-Pin_7-Pad7)*%
X130093316Y-96240000D03*
%TO.P,J14,8,Pin_8_8*%
%TO.N,unconnected-(J14-Pin_8-Pad8)*%
X130093316Y-98780000D03*
%TO.P,J14,9,Pin_9_9*%
%TO.N,/DT10*%
X130093316Y-101320000D03*
%TO.P,J14,10,Pin_10_10*%
%TO.N,/DT9*%
X130093316Y-103860000D03*
%TO.P,J14,11,Pin_11_11*%
%TO.N,/DT8*%
X130093316Y-106400000D03*
%TO.P,J14,12,Pin_12_12*%
%TO.N,/DT12*%
X130093316Y-108940000D03*
%TO.P,J14,13,Pin_13_13*%
%TO.N,/DT11*%
X130093316Y-111480000D03*
%TO.P,J14,14,Pin_14_14*%
%TO.N,unconnected-(J14-Pin_14-Pad14)*%
X130093316Y-114020000D03*
%TO.P,J14,15,Pin_15_15*%
%TO.N,unconnected-(J14-Pin_15-Pad15)*%
X130093316Y-116560000D03*
%TO.P,J14,16,Pin_16_16*%
%TO.N,unconnected-(J14-Pin_16-Pad16)*%
X130093316Y-119100000D03*
%TO.P,J14,17,Pin_17_17*%
%TO.N,unconnected-(J14-Pin_17-Pad17)*%
X130093316Y-121640000D03*
%TO.P,J14,18,Pin_18_18*%
%TO.N,unconnected-(J14-Pin_18-Pad18)*%
X130093316Y-124180000D03*
%TD*%
D10*
%TO.P,J3,1,Pin_1_1*%
%TO.N,GND*%
X92000000Y-79246926D03*
D11*
%TO.P,J3,2,Pin_2_2*%
%TO.N,/DT3*%
X92000000Y-81746926D03*
%TO.P,J3,3,Pin_3_3*%
%TO.N,/SCK*%
X92000000Y-84246926D03*
%TO.P,J3,4,Pin_4_4*%
%TO.N,+3V3*%
X92000000Y-86746926D03*
%TD*%
D10*
%TO.P,J1,1,Pin_1_1*%
%TO.N,GND*%
X92000000Y-65196926D03*
D11*
%TO.P,J1,2,Pin_2_2*%
%TO.N,/DT1*%
X92000000Y-67696926D03*
%TO.P,J1,3,Pin_3_3*%
%TO.N,/SCK*%
X92000000Y-70196926D03*
%TO.P,J1,4,Pin_4_4*%
%TO.N,+3V3*%
X92000000Y-72696926D03*
%TD*%
D12*
%TO.P,J11,1,Pin_1_1*%
%TO.N,GND*%
X142000000Y-143000000D03*
D11*
%TO.P,J11,2,Pin_2_2*%
%TO.N,/DT11*%
X142000000Y-140500000D03*
%TO.P,J11,3,Pin_3_3*%
%TO.N,/SCK*%
X142000000Y-138000000D03*
%TO.P,J11,4,Pin_4_4*%
%TO.N,+3V3*%
X142000000Y-135500000D03*
%TD*%
D10*
%TO.P,J5,1,Pin_1_1*%
%TO.N,GND*%
X92000000Y-107500000D03*
D11*
%TO.P,J5,2,Pin_2_2*%
%TO.N,/DT5*%
X92000000Y-110000000D03*
%TO.P,J5,3,Pin_3_3*%
%TO.N,/SCK*%
X92000000Y-112500000D03*
%TO.P,J5,4,Pin_4_4*%
%TO.N,+3V3*%
X92000000Y-115000000D03*
%TD*%
D13*
%TO.P,J13,1,Pin_1_1*%
%TO.N,+3V3*%
X104693316Y-81000000D03*
D14*
%TO.P,J13,2,Pin_2_2*%
%TO.N,unconnected-(J13-Pin_2-Pad2)*%
X104693316Y-83540000D03*
%TO.P,J13,3,Pin_3_3*%
%TO.N,unconnected-(J13-Pin_3-Pad3)*%
X104693316Y-86080000D03*
%TO.P,J13,4,Pin_4_4*%
%TO.N,unconnected-(J13-Pin_4-Pad4)*%
X104693316Y-88620000D03*
%TO.P,J13,5,Pin_5_5*%
%TO.N,unconnected-(J13-Pin_5-Pad5)*%
X104693316Y-91160000D03*
%TO.P,J13,6,Pin_6_6*%
%TO.N,unconnected-(J13-Pin_6-Pad6)*%
X104693316Y-93700000D03*
%TO.P,J13,7,Pin_7_7*%
%TO.N,unconnected-(J13-Pin_7-Pad7)*%
X104693316Y-96240000D03*
%TO.P,J13,8,Pin_8_8*%
%TO.N,/DT1*%
X104693316Y-98780000D03*
%TO.P,J13,9,Pin_9_9*%
%TO.N,unconnected-(J13-Pin_9-Pad9)*%
X104693316Y-101320000D03*
%TO.P,J13,10,Pin_10_10*%
%TO.N,unconnected-(J13-Pin_10-Pad10)*%
X104693316Y-103860000D03*
%TO.P,J13,11,Pin_11_11*%
%TO.N,/SCK*%
X104693316Y-106400000D03*
%TO.P,J13,12,Pin_12_12*%
%TO.N,/DT3*%
X104693316Y-108940000D03*
%TO.P,J13,13,Pin_13_13*%
%TO.N,/DT4*%
X104693316Y-111480000D03*
%TO.P,J13,14,Pin_14_14*%
%TO.N,/DT5*%
X104693316Y-114020000D03*
%TO.P,J13,15,Pin_15_15*%
%TO.N,unconnected-(J13-Pin_15-Pad15)*%
X104693316Y-116560000D03*
%TO.P,J13,16,Pin_16_16*%
%TO.N,unconnected-(J13-Pin_16-Pad16)*%
X104693316Y-119100000D03*
%TO.P,J13,17,Pin_17_17*%
%TO.N,/DT6*%
X104693316Y-121640000D03*
%TO.P,J13,18,Pin_18_18*%
%TO.N,/DT7*%
X104693316Y-124180000D03*
%TD*%
D10*
%TO.P,J4,1,Pin_1_1*%
%TO.N,GND*%
X92000000Y-93500000D03*
D11*
%TO.P,J4,2,Pin_2_2*%
%TO.N,/DT4*%
X92000000Y-96000000D03*
%TO.P,J4,3,Pin_3_3*%
%TO.N,/SCK*%
X92000000Y-98500000D03*
%TO.P,J4,4,Pin_4_4*%
%TO.N,+3V3*%
X92000000Y-101000000D03*
%TD*%
D12*
%TO.P,J8,1,Pin_1_1*%
%TO.N,GND*%
X142000000Y-115050000D03*
D11*
%TO.P,J8,2,Pin_2_2*%
%TO.N,/DT8*%
X142000000Y-112550000D03*
%TO.P,J8,3,Pin_3_3*%
%TO.N,/SCK*%
X142000000Y-110050000D03*
%TO.P,J8,4,Pin_4_4*%
%TO.N,+3V3*%
X142000000Y-107550000D03*
%TD*%
D12*
%TO.P,J9,1,Pin_1_1*%
%TO.N,GND*%
X142000000Y-101000000D03*
D11*
%TO.P,J9,2,Pin_2_2*%
%TO.N,/DT9*%
X142000000Y-98500000D03*
%TO.P,J9,3,Pin_3_3*%
%TO.N,/SCK*%
X142000000Y-96000000D03*
%TO.P,J9,4,Pin_4_4*%
%TO.N,+3V3*%
X142000000Y-93500000D03*
%TD*%
%TO.N,/DT7*%
D15*
X92000000Y-138000000D02*
X104693316Y-125306684D01*
X104693316Y-125306684D02*
X104693316Y-124876926D01*
%TO.N,+3V3*%
X142000000Y-121500000D02*
X144000000Y-123500000D01*
X90000000Y-131000000D02*
X92000000Y-129000000D01*
X92000000Y-101000000D02*
X90000000Y-99000000D01*
X90000000Y-113000000D02*
X90000000Y-103000000D01*
X144000000Y-109550000D02*
X144000000Y-119500000D01*
X92000000Y-129000000D02*
X90000000Y-127000000D01*
X104693316Y-81000000D02*
X104693316Y-73693316D01*
X90000000Y-99000000D02*
X90000000Y-88746926D01*
X92000000Y-86746926D02*
X90000000Y-84746926D01*
X142000000Y-65500000D02*
X144000000Y-67500000D01*
X90000000Y-64000000D02*
X90000000Y-70696926D01*
X144000000Y-123500000D02*
X144000000Y-133500000D01*
X90000000Y-103000000D02*
X92000000Y-101000000D01*
X142000000Y-79450000D02*
X144000000Y-81450000D01*
X91000000Y-63000000D02*
X90000000Y-64000000D01*
X144000000Y-133500000D02*
X142000000Y-135500000D01*
X92000000Y-143000000D02*
X90000000Y-141000000D01*
X92000000Y-115000000D02*
X90000000Y-113000000D01*
X104693316Y-81000000D02*
X120193316Y-65500000D01*
X90000000Y-88746926D02*
X92000000Y-86746926D01*
X144000000Y-119500000D02*
X142000000Y-121500000D01*
X142000000Y-93500000D02*
X144000000Y-95500000D01*
X104693316Y-73693316D02*
X94000000Y-63000000D01*
X94000000Y-63000000D02*
X91000000Y-63000000D01*
X92000000Y-101109956D02*
X92000000Y-101000000D01*
X90000000Y-127000000D02*
X90000000Y-117000000D01*
X142000000Y-107550000D02*
X144000000Y-109550000D01*
X120193316Y-65500000D02*
X142000000Y-65500000D01*
X144000000Y-77450000D02*
X142000000Y-79450000D01*
X90000000Y-74696926D02*
X92000000Y-72696926D01*
X144000000Y-95500000D02*
X144000000Y-105550000D01*
X90000000Y-70696926D02*
X92000000Y-72696926D01*
X90000000Y-84746926D02*
X90000000Y-74696926D01*
X144000000Y-105550000D02*
X142000000Y-107550000D01*
X90000000Y-141000000D02*
X90000000Y-131000000D01*
X144000000Y-67500000D02*
X144000000Y-77450000D01*
X144000000Y-91500000D02*
X142000000Y-93500000D01*
X144000000Y-81450000D02*
X144000000Y-91500000D01*
X90000000Y-117000000D02*
X92000000Y-115000000D01*
%TO.N,/DT10*%
X140000000Y-86450000D02*
X140000000Y-92110242D01*
X142000000Y-84450000D02*
X140000000Y-86450000D01*
X140000000Y-92110242D02*
X130093316Y-102016926D01*
%TO.N,/DT2*%
X139500000Y-73000000D02*
X139500000Y-84990242D01*
X142000000Y-70500000D02*
X139500000Y-73000000D01*
X139500000Y-84990242D02*
X130093316Y-94396926D01*
%TO.N,/DT12*%
X139000000Y-117846684D02*
X139000000Y-123500000D01*
X130093316Y-108940000D02*
X139000000Y-117846684D01*
X139000000Y-123500000D02*
X142000000Y-126500000D01*
%TO.N,/DT6*%
X103030242Y-124000000D02*
X104693316Y-122336926D01*
X92000000Y-124000000D02*
X103030242Y-124000000D01*
%TO.N,/DT9*%
X142000000Y-98500000D02*
X136150242Y-98500000D01*
X136150242Y-98500000D02*
X130093316Y-104556926D01*
%TO.N,/DT8*%
X130093316Y-106400000D02*
X136243316Y-112550000D01*
X136243316Y-112550000D02*
X142000000Y-112550000D01*
%TO.N,/DT11*%
X132500000Y-113886684D02*
X132500000Y-131000000D01*
X132500000Y-131000000D02*
X142000000Y-140500000D01*
X130093316Y-111480000D02*
X132500000Y-113886684D01*
%TO.N,/DT3*%
X100000000Y-104943610D02*
X104693316Y-109636926D01*
X92000000Y-81746926D02*
X100000000Y-89746926D01*
X100000000Y-89746926D02*
X100000000Y-104943610D01*
%TO.N,/DT1*%
X92000000Y-67696926D02*
X101000000Y-76696926D01*
X101000000Y-76696926D02*
X101000000Y-95783610D01*
X101000000Y-95783610D02*
X104693316Y-99476926D01*
%TO.N,/DT5*%
X99976390Y-110000000D02*
X104693316Y-114716926D01*
X92000000Y-110000000D02*
X99976390Y-110000000D01*
%TO.N,/DT4*%
X99000000Y-106483610D02*
X104693316Y-112176926D01*
X92000000Y-96000000D02*
X99000000Y-103000000D01*
X99000000Y-103000000D02*
X99000000Y-106483610D01*
%TD*%
M02*
